<svg width="17" height="12" viewBox="0 0 17 12" fill="none" xmlns="http://www.w3.org/2000/svg">
<g clip-path="url(#clip0_1020_36)">
<path fill-rule="evenodd" clip-rule="evenodd" d="M1.75231 11.6443C1.11154 11.4335 0.679999 11.012 0.444615 10.3666C-0.117693 8.81224 -0.287693 2.26559 0.797692 0.974703C1.17692 0.526844 1.64769 0.276569 2.22308 0.210708C5.15231 -0.105428 14.2146 -0.0659115 15.2608 0.316086C15.8754 0.540016 16.3069 0.935186 16.5423 1.55429C17.1569 3.17448 17.1831 9.06252 16.4638 10.6169C16.2677 11.0384 15.9538 11.3413 15.5485 11.5521C14.45 12.1317 3.20385 12.1185 1.76538 11.6443H1.75231ZM6.40769 8.57514C8.17308 7.65308 9.91231 6.74419 11.6908 5.82212C9.91231 4.88689 8.17308 3.978 6.40769 3.04276V8.57514Z" fill="white"/>
</g>
<defs>
<clipPath id="clip0_1020_36">
<rect width="17" height="12" fill="white"/>
</clipPath>
</defs>
</svg>
