<svg width="36" height="36" viewBox="0 0 36 36" fill="none" xmlns="http://www.w3.org/2000/svg">
<g clip-path="url(#clip0_17_323)">
<path fill-rule="evenodd" clip-rule="evenodd" d="M20.9683 11.2081C21.562 11.195 22.1557 11.2081 22.7493 11.2081H23V8.14404C22.6834 8.11785 22.3536 8.06547 22.0237 8.05238C21.4169 8.02619 20.81 8 20.2032 8.0131C19.2797 8.02619 18.3958 8.26189 17.6306 8.79876C16.7467 9.42729 16.2718 10.3177 16.0871 11.3522C16.0079 11.7843 15.9947 12.2295 15.9815 12.6616C15.9683 13.3425 15.9815 14.0365 15.9815 14.7174V14.9793H13V18.397H15.9288V27H19.5172V18.4101H22.4459C22.591 17.2708 22.7361 16.1447 22.8945 14.9793C22.657 14.9793 22.4459 14.9793 22.2348 14.9793C21.4037 14.9793 19.4908 14.9793 19.4908 14.9793C19.4908 14.9793 19.4908 13.2901 19.5172 12.5438C19.5435 11.5355 20.1504 11.2343 20.9551 11.195L20.9683 11.2081Z" fill="white"/>
</g>
<circle cx="18" cy="18" r="17.5" stroke="white"/>
<defs>
<clipPath id="clip0_17_323">
<rect width="10" height="19" fill="white" transform="translate(13 8)"/>
</clipPath>
</defs>
</svg>
