<svg width="36" height="36" viewBox="0 0 36 36" fill="none" xmlns="http://www.w3.org/2000/svg">
<g clip-path="url(#clip0_17_342)">
<path d="M11.2481 14.9751H14.3623V25H11.2481V14.9751ZM12.799 10C13.7916 10 14.598 10.8085 14.598 11.8035C14.598 12.7985 13.7916 13.607 12.799 13.607C11.8065 13.607 11 12.7985 11 11.8035C11 10.8085 11.8065 10 12.799 10Z" fill="white"/>
<path d="M16.3102 14.9751H19.2878V16.3433H19.3251C19.7469 15.5597 20.7519 14.7264 22.2655 14.7264C25.4169 14.7264 25.9876 16.8035 25.9876 19.5025V25H22.8859V20.1244C22.8859 18.9552 22.861 17.4627 21.273 17.4627C19.6849 17.4627 19.4119 18.7314 19.4119 20.0373V25H16.3102V14.9751Z" fill="white"/>
</g>
<circle cx="18" cy="18" r="17.5" stroke="white"/>
<defs>
<clipPath id="clip0_17_342">
<rect width="15" height="15" fill="white" transform="translate(11 10)"/>
</clipPath>
</defs>
</svg>
