<svg width="36" height="36" viewBox="0 0 36 36" fill="none" xmlns="http://www.w3.org/2000/svg">
<g clip-path="url(#clip0_17_360)">
<path fill-rule="evenodd" clip-rule="evenodd" d="M11.7523 23.6444C11.1115 23.4336 10.68 23.0121 10.4446 22.3666C9.88231 20.8123 9.71231 14.2657 10.7977 12.9748C11.1769 12.5269 11.6477 12.2766 12.2231 12.2108C15.1523 11.8946 24.2146 11.9341 25.2608 12.3161C25.8754 12.5401 26.3069 12.9352 26.5423 13.5543C27.1569 15.1745 27.1831 21.0626 26.4638 22.6169C26.2677 23.0384 25.9538 23.3414 25.5485 23.5522C24.45 24.1317 13.2038 24.1186 11.7654 23.6444H11.7523ZM16.4077 20.5752C18.1731 19.6531 19.9123 18.7442 21.6908 17.8222C19.9123 16.8869 18.1731 15.9781 16.4077 15.0428V20.5752Z" fill="white"/>
</g>
<circle cx="18" cy="18" r="17.5" stroke="white"/>
<defs>
<clipPath id="clip0_17_360">
<rect width="17" height="12" fill="white" transform="translate(10 12)"/>
</clipPath>
</defs>
</svg>
