<svg width="135" height="135" viewBox="0 0 135 135" fill="none" xmlns="http://www.w3.org/2000/svg">
<path d="M75.1853 130.681C109.543 126.3 133.844 94.8955 129.463 60.5377C125.081 26.1799 93.677 1.87913 59.3192 6.26044C24.9614 10.6418 0.660642 42.046 5.04195 76.4038C9.42327 110.762 40.8275 135.062 75.1853 130.681Z" fill="#222A4F"/>
<path d="M67.248 128.826C100.581 128.826 127.602 101.805 127.602 68.472C127.602 35.1394 100.581 8.11801 67.248 8.11801C33.9154 8.11801 6.89398 35.1394 6.89398 68.472C6.89398 101.805 33.9154 128.826 67.248 128.826Z" fill="white"/>
<path fill-rule="evenodd" clip-rule="evenodd" d="M21.7709 51.426C28.7819 32.67 47.1599 19.971 67.2479 19.971C93.9599 19.971 115.749 41.76 115.749 68.472C115.749 95.184 93.9599 116.973 67.2479 116.973C40.5359 116.973 18.7469 95.184 18.7469 68.472C18.7469 62.793 19.8809 56.727 21.7709 51.426Z" fill="#222A4F"/>
<path fill-rule="evenodd" clip-rule="evenodd" d="M30.474 54.684C36.144 39.519 51.003 29.25 67.239 29.25C88.839 29.25 106.452 46.863 106.452 68.463C106.452 90.063 88.839 107.676 67.239 107.676C45.639 107.676 28.026 90.063 28.026 68.463C28.026 63.882 28.944 58.977 30.474 54.684Z" fill="white"/>
<path fill-rule="evenodd" clip-rule="evenodd" d="M39.6089 45.171H47.061C43.101 45.855 40.0049 49.167 39.6089 53.253V45.171ZM76.023 63.144V99.738H57.609V63.144H50.1119C54.36 62.406 57.609 58.653 57.609 54.162C57.609 49.662 54.36 45.909 50.1119 45.18H84.1769C79.929 45.918 76.6799 49.671 76.6799 54.162C76.6799 58.662 79.929 62.415 84.1769 63.144H76.023ZM87.228 45.171H94.8779V63.135H87.228C91.4759 62.397 94.725 58.644 94.725 54.153C94.725 49.662 91.4759 45.909 87.228 45.171ZM47.0699 63.144H39.6089V55.062C40.0049 59.148 43.1009 62.46 47.0699 63.144Z" fill="#848586"/>
<path fill-rule="evenodd" clip-rule="evenodd" d="M67.329 75.978C69.957 75.978 72.09 73.818 72.09 71.163C72.09 68.508 69.948 66.348 67.329 66.348C64.701 66.348 62.559 68.508 62.559 71.163C62.559 73.818 64.701 75.978 67.329 75.978Z" fill="white"/>
<path fill-rule="evenodd" clip-rule="evenodd" d="M69.291 50.328C70.758 50.895 71.937 52.074 72.495 53.541H74.214V57.555H72.45C71.631 59.598 69.633 61.038 67.302 61.038C64.971 61.038 62.973 59.589 62.154 57.555H60.399V53.55H62.118C62.676 52.074 63.846 50.904 65.313 50.337V48.357H66.141V47.223H63.594V46.143H71.028V47.223H68.256V48.357H69.282V50.328H69.291Z" fill="white"/>
<path fill-rule="evenodd" clip-rule="evenodd" d="M66.798 81.405C71.856 81.405 75.978 85.527 75.978 90.585C75.978 95.643 71.856 99.765 66.798 99.765C61.74 99.765 57.618 95.643 57.618 90.585C57.618 85.527 61.74 81.405 66.798 81.405Z" fill="white"/>
<path fill-rule="evenodd" clip-rule="evenodd" d="M65.799 81.504H66.573L67.5809 82.98V81.504H68.3549V84.168H67.5809L66.582 82.701V84.168H65.799V81.504Z" fill="#848586"/>
<path fill-rule="evenodd" clip-rule="evenodd" d="M61.524 84.852L68.607 90.666L69.084 92.322L67.095 91.917L61.524 84.852Z" fill="#848586"/>
<path fill-rule="evenodd" clip-rule="evenodd" d="M73.377 89.217H75.582V89.784H74.196V90.207H75.483V90.747H74.196V91.278H75.618V91.881H73.377V89.217Z" fill="#848586"/>
<path fill-rule="evenodd" clip-rule="evenodd" d="M57.555 89.217H58.338L58.617 90.702L59.031 89.217H59.805L60.219 90.702L60.507 89.217H61.281L60.696 91.881H59.886L59.418 90.198L58.95 91.881H58.149L57.555 89.217Z" fill="#848586"/>
<path fill-rule="evenodd" clip-rule="evenodd" d="M65.655 99.018L66.438 98.973C66.456 99.099 66.492 99.198 66.546 99.261C66.627 99.369 66.753 99.423 66.906 99.423C67.023 99.423 67.113 99.396 67.176 99.342C67.239 99.288 67.275 99.225 67.275 99.153C67.275 99.081 67.248 99.018 67.185 98.964C67.122 98.91 66.987 98.856 66.762 98.811C66.402 98.73 66.141 98.622 65.988 98.487C65.835 98.352 65.754 98.181 65.754 97.974C65.754 97.839 65.79 97.704 65.871 97.587C65.952 97.461 66.069 97.371 66.231 97.299C66.393 97.227 66.609 97.191 66.888 97.191C67.23 97.191 67.491 97.254 67.671 97.38C67.851 97.506 67.959 97.713 67.986 97.983L67.212 98.028C67.194 97.911 67.149 97.821 67.077 97.767C67.014 97.713 66.924 97.686 66.807 97.686C66.708 97.686 66.636 97.704 66.591 97.749C66.546 97.785 66.519 97.839 66.519 97.893C66.519 97.938 66.537 97.974 66.582 98.01C66.618 98.046 66.717 98.073 66.861 98.109C67.221 98.19 67.482 98.262 67.635 98.343C67.788 98.424 67.905 98.523 67.977 98.64C68.049 98.757 68.085 98.892 68.085 99.036C68.085 99.207 68.04 99.369 67.941 99.504C67.851 99.648 67.716 99.756 67.545 99.837C67.374 99.909 67.158 99.945 66.906 99.945C66.456 99.945 66.141 99.855 65.961 99.684C65.772 99.504 65.673 99.288 65.655 99.018Z" fill="#848586"/>
<path d="M22.527 48.501L15.021 45.063L13.77 47.7L12.249 46.998L15.588 39.942L17.118 40.644L15.876 43.272L23.373 46.71L22.527 48.501Z" fill="#222A4F"/>
<path d="M21.069 31.788L22.392 30.294L26.46 33.777C27.108 34.326 27.54 34.668 27.765 34.794C28.125 34.992 28.512 35.055 28.908 34.974C29.304 34.893 29.691 34.641 30.06 34.227C30.438 33.804 30.627 33.408 30.645 33.048C30.663 32.679 30.555 32.373 30.339 32.103C30.123 31.842 29.709 31.455 29.115 30.951L24.957 27.396L26.28 25.902L30.231 29.277C31.131 30.051 31.734 30.627 32.04 31.032C32.337 31.428 32.526 31.851 32.589 32.283C32.652 32.715 32.607 33.183 32.436 33.678C32.265 34.173 31.923 34.704 31.41 35.289C30.789 36 30.231 36.459 29.745 36.684C29.259 36.909 28.791 37.008 28.332 36.999C27.882 36.981 27.477 36.891 27.126 36.702C26.604 36.432 25.929 35.937 25.092 35.217L21.069 31.788Z" fill="#222A4F"/>
<path d="M42.309 26.181L34.362 19.314L36.27 18.27L42.048 23.409L40.608 15.912L42.471 14.895L44.181 25.155L42.309 26.181Z" fill="#222A4F"/>
<path d="M61.497 19.539L59.355 19.989L58.032 17.991L54.135 18.801L53.802 21.141L51.714 21.573L53.442 11.205L55.521 10.773L61.497 19.539ZM57.06 16.506L54.945 13.23L54.396 17.055L57.06 16.506Z" fill="#222A4F"/>
<path d="M68.328 19.323L69.021 9.55801L70.974 9.69301L74.574 16.497L75.042 9.97201L76.905 10.098L76.212 19.863L74.196 19.728L70.65 13.086L70.191 19.449L68.328 19.323Z" fill="#222A4F"/>
<path d="M85.563 17.406C85.977 16.497 86.463 15.795 87.021 15.291C87.435 14.922 87.903 14.643 88.425 14.436C88.947 14.229 89.46 14.13 89.964 14.148C90.639 14.166 91.35 14.328 92.088 14.652C93.429 15.237 94.311 16.119 94.752 17.289C95.184 18.459 95.076 19.773 94.41 21.222C93.753 22.662 92.844 23.625 91.674 24.084C90.504 24.552 89.253 24.489 87.921 23.904C86.571 23.31 85.68 22.437 85.239 21.276C84.816 20.115 84.924 18.828 85.563 17.406ZM87.489 18.171C87.03 19.179 86.922 20.052 87.156 20.79C87.399 21.519 87.885 22.05 88.614 22.365C89.343 22.689 90.063 22.689 90.774 22.374C91.476 22.059 92.061 21.384 92.538 20.349C93.006 19.323 93.123 18.459 92.889 17.757C92.655 17.055 92.169 16.533 91.413 16.2C90.657 15.867 89.928 15.858 89.235 16.164C88.533 16.47 87.957 17.145 87.489 18.171Z" fill="#222A4F"/>
<path d="M100.269 27.243L101.835 28.413C101.475 28.962 101.322 29.475 101.376 29.934C101.43 30.393 101.682 30.834 102.123 31.239C102.6 31.671 103.05 31.905 103.473 31.923C103.896 31.95 104.238 31.824 104.49 31.563C104.652 31.392 104.733 31.203 104.751 30.996C104.76 30.78 104.688 30.519 104.517 30.204C104.4 29.988 104.103 29.52 103.635 28.809C103.032 27.891 102.699 27.153 102.645 26.577C102.573 25.776 102.807 25.083 103.338 24.525C103.689 24.156 104.112 23.913 104.625 23.787C105.138 23.661 105.669 23.697 106.227 23.895C106.776 24.093 107.334 24.444 107.892 24.957C108.81 25.794 109.314 26.622 109.395 27.441C109.485 28.26 109.224 29.007 108.621 29.682L107.091 28.395C107.379 27.972 107.496 27.585 107.442 27.234C107.388 26.883 107.154 26.514 106.74 26.136C106.308 25.749 105.894 25.524 105.489 25.479C105.228 25.443 105.012 25.524 104.832 25.713C104.67 25.884 104.607 26.1 104.634 26.352C104.67 26.676 104.976 27.252 105.534 28.071C106.092 28.89 106.461 29.547 106.632 30.042C106.803 30.537 106.839 31.023 106.749 31.509C106.65 31.995 106.389 32.463 105.957 32.913C105.57 33.327 105.084 33.597 104.517 33.75C103.95 33.894 103.365 33.858 102.78 33.651C102.195 33.435 101.574 33.039 100.944 32.463C100.026 31.617 99.513 30.762 99.414 29.889C99.324 29.016 99.612 28.134 100.269 27.243Z" fill="#222A4F"/>
<path d="M113.049 48.555L111.96 46.692L113.481 44.838L111.492 41.454L109.125 41.868L108.054 40.05L118.62 38.457L119.682 40.266L113.049 48.555ZM114.606 43.461L117.117 40.473L113.247 41.148L114.606 43.461Z" fill="#222A4F"/>
<path d="M23.463 92.007L25.218 95.022C25.614 95.706 25.857 96.246 25.956 96.66C26.091 97.218 26.064 97.767 25.884 98.307C25.704 98.847 25.398 99.351 24.948 99.819C24.498 100.287 23.877 100.737 23.076 101.16C22.374 101.529 21.708 101.772 21.105 101.871C20.367 101.997 19.692 101.97 19.08 101.799C18.621 101.673 18.171 101.403 17.721 100.998C17.388 100.701 17.046 100.242 16.686 99.63L14.877 96.525L23.463 92.007ZM22.968 94.428L17.28 97.434L18 98.667C18.27 99.126 18.486 99.45 18.666 99.621C18.891 99.855 19.143 100.008 19.413 100.098C19.683 100.188 20.043 100.179 20.493 100.089C20.943 99.999 21.501 99.774 22.167 99.423C22.833 99.072 23.31 98.748 23.598 98.451C23.886 98.154 24.075 97.848 24.156 97.542C24.237 97.236 24.228 96.912 24.111 96.561C24.03 96.3 23.796 95.832 23.4 95.166L22.968 94.428Z" fill="#222A4F"/>
<path d="M23.7419 108.792L30.5639 102.069L35.8019 106.884L34.6499 108.027L30.8429 104.526L29.3309 106.02L32.8769 109.278L31.7249 110.412L28.1789 107.154L26.3249 108.981L30.2669 112.608L29.1149 113.742L23.7419 108.792Z" fill="#222A4F"/>
<path d="M36.207 115.137L37.971 115.902C37.746 116.496 37.71 117 37.872 117.414C38.025 117.828 38.367 118.188 38.889 118.476C39.438 118.782 39.924 118.899 40.338 118.827C40.752 118.764 41.049 118.575 41.229 118.278C41.346 118.089 41.382 117.891 41.346 117.693C41.31 117.495 41.175 117.261 40.941 117C40.779 116.82 40.392 116.451 39.78 115.893C38.988 115.173 38.511 114.543 38.331 114.03C38.079 113.301 38.142 112.608 38.538 111.969C38.79 111.555 39.141 111.24 39.609 111.015C40.068 110.79 40.59 110.709 41.166 110.781C41.742 110.853 42.354 111.06 43.011 111.42C44.082 112.005 44.748 112.671 45.018 113.409C45.288 114.156 45.207 114.903 44.784 115.659L43.02 114.786C43.2 114.327 43.227 113.94 43.092 113.625C42.957 113.31 42.651 113.022 42.174 112.752C41.679 112.473 41.229 112.356 40.824 112.401C40.563 112.428 40.374 112.545 40.248 112.752C40.131 112.941 40.113 113.157 40.203 113.382C40.311 113.67 40.734 114.147 41.454 114.786C42.174 115.434 42.678 115.965 42.957 116.388C43.236 116.811 43.38 117.252 43.398 117.729C43.416 118.206 43.263 118.692 42.957 119.205C42.678 119.673 42.273 120.033 41.76 120.285C41.247 120.546 40.68 120.636 40.068 120.555C39.456 120.483 38.772 120.24 38.034 119.835C36.963 119.241 36.279 118.557 35.991 117.765C35.694 116.982 35.766 116.1 36.207 115.137Z" fill="#222A4F"/>
<path d="M51.057 115.209L54.54 116.163C55.323 116.379 55.908 116.595 56.286 116.82C56.79 117.126 57.186 117.531 57.456 118.035C57.735 118.539 57.888 119.106 57.924 119.736C57.951 120.366 57.843 121.104 57.591 121.95C57.366 122.688 57.078 123.3 56.727 123.786C56.295 124.371 55.8 124.812 55.242 125.1C54.819 125.316 54.306 125.433 53.685 125.451C53.226 125.46 52.65 125.37 51.939 125.181L48.357 124.2L51.057 115.209ZM52.506 117.243L50.715 123.192L52.137 123.579C52.668 123.723 53.064 123.804 53.316 123.804C53.649 123.813 53.937 123.759 54.198 123.642C54.459 123.525 54.711 123.273 54.954 122.913C55.206 122.544 55.431 122.013 55.647 121.32C55.854 120.627 55.953 120.078 55.935 119.664C55.917 119.259 55.827 118.917 55.656 118.647C55.485 118.377 55.233 118.152 54.9 117.981C54.648 117.846 54.144 117.684 53.361 117.468L52.506 117.243Z" fill="#222A4F"/>
<path d="M63.738 126.972L64.08 117.63L71.352 117.873L71.298 119.457L66.006 119.277L65.934 121.347L70.857 121.509L70.803 123.084L65.88 122.922L65.79 125.469L71.271 125.649L71.217 127.224L63.738 126.972Z" fill="#222A4F"/>
<path d="M89.955 122.796L88.209 123.471L85.554 117.207C85.158 118.026 84.582 118.728 83.835 119.331L83.196 117.819C83.592 117.504 83.97 117.045 84.339 116.442C84.708 115.839 84.879 115.236 84.843 114.633L86.256 114.084L89.955 122.796Z" fill="#222A4F"/>
<path d="M96.363 117.522L97.722 116.343C97.974 116.604 98.235 116.748 98.487 116.784C98.748 116.82 99 116.748 99.243 116.577C99.558 116.361 99.72 116.037 99.729 115.614C99.738 115.182 99.45 114.516 98.847 113.607C98.784 114.3 98.469 114.84 97.893 115.236C97.272 115.668 96.552 115.812 95.751 115.668C94.95 115.524 94.266 115.083 93.699 114.345C93.114 113.58 92.88 112.788 93.006 111.987C93.123 111.186 93.555 110.529 94.293 110.016C95.103 109.458 95.985 109.296 96.957 109.539C97.929 109.773 98.928 110.574 99.963 111.933C101.016 113.319 101.511 114.498 101.439 115.488C101.367 116.469 100.899 117.261 100.035 117.864C99.414 118.296 98.793 118.485 98.172 118.431C97.56 118.377 96.957 118.071 96.363 117.522ZM97.398 111.969C97.038 111.501 96.651 111.213 96.228 111.114C95.805 111.015 95.445 111.069 95.148 111.267C94.869 111.465 94.716 111.726 94.689 112.068C94.662 112.41 94.833 112.824 95.202 113.301C95.571 113.787 95.949 114.075 96.327 114.165C96.705 114.255 97.047 114.192 97.344 113.985C97.632 113.787 97.803 113.499 97.83 113.148C97.866 112.788 97.722 112.401 97.398 111.969Z" fill="#222A4F"/>
<path d="M102.393 106.353L101.115 105.219L105.507 100.737L106.506 101.628C106.524 102.339 106.704 103.203 107.046 104.22C107.388 105.237 107.865 106.2 108.468 107.118C109.08 108.036 109.701 108.774 110.34 109.332L109.107 110.592C108.135 109.692 107.316 108.594 106.641 107.307C105.966 106.02 105.525 104.715 105.318 103.374L102.393 106.353Z" fill="#222A4F"/>
<path d="M118.548 98.685L116.82 97.776L114.876 101.124L113.436 100.359L110.052 93.933L110.817 92.619L116.262 95.499L116.856 94.482L118.305 95.247L117.711 96.264L119.439 97.173L118.548 98.685ZM115.371 97.011L112.437 95.463L114.282 98.892L115.371 97.011Z" fill="#222A4F"/>
</svg>
