<?xml version="1.0" encoding="utf-8"?>
<!-- Generator: Adobe Illustrator 28.0.0, SVG Export Plug-In . SVG Version: 6.00 Build 0)  -->
<svg version="1.1" id="Capa_1" xmlns="http://www.w3.org/2000/svg" xmlns:xlink="http://www.w3.org/1999/xlink" x="0px" y="0px"
	 viewBox="0 0 48 48" style="enable-background:new 0 0 48 48;" xml:space="preserve">
<style type="text/css">
	.st0{fill-rule:evenodd;clip-rule:evenodd;fill:#212A4F;}
	.st1{fill-rule:evenodd;clip-rule:evenodd;fill:#FFFFFF;}
	.st2{fill-rule:evenodd;clip-rule:evenodd;fill:#828384;}
	.st3{fill:#212A4F;}
</style>
<g>
	<g>
		<ellipse transform="matrix(0.992 -0.1265 0.1265 0.992 -2.8423 3.2277)" class="st0" cx="24" cy="24" rx="21.99" ry="21.99"/>
		<circle class="st1" cx="24" cy="24" r="21.16"/>
		<path class="st0" d="M8.05,18.02C10.51,11.44,16.96,6.99,24,6.99c9.37,0,17.01,7.64,17.01,17.01c0,9.37-7.64,17.01-17.01,17.01
			S6.99,33.37,6.99,24C6.99,22.01,7.39,19.88,8.05,18.02z"/>
		<path class="st1" d="M11.11,19.17c1.99-5.32,7.2-8.92,12.89-8.92c7.58,0,13.75,6.18,13.75,13.75c0,7.58-6.18,13.75-13.75,13.75
			c-7.57,0-13.75-6.18-13.75-13.75C10.25,22.39,10.57,20.67,11.11,19.17z"/>
		<path class="st2" d="M14.31,15.83h2.61c-1.39,0.24-2.47,1.4-2.61,2.84V15.83L14.31,15.83z M27.08,22.13v12.83h-6.46V22.13h-2.63
			c1.49-0.26,2.63-1.57,2.63-3.15c0-1.58-1.14-2.89-2.63-3.15h11.95c-1.49,0.26-2.63,1.57-2.63,3.15c0,1.58,1.14,2.89,2.63,3.15
			H27.08L27.08,22.13z M31.01,15.83h2.68v6.3h-2.68c1.49-0.26,2.63-1.57,2.63-3.15C33.64,17.4,32.5,16.09,31.01,15.83L31.01,15.83z
			 M16.92,22.13h-2.62v-2.84C14.45,20.73,15.53,21.89,16.92,22.13z"/>
		<path class="st1" d="M24.03,26.63c0.92,0,1.67-0.76,1.67-1.69c0-0.93-0.75-1.69-1.67-1.69c-0.92,0-1.67,0.76-1.67,1.69
			C22.36,25.87,23.11,26.63,24.03,26.63z"/>
		<path class="st1" d="M24.72,17.64c0.52,0.2,0.93,0.61,1.12,1.13h0.6v1.41h-0.62c-0.29,0.72-0.99,1.22-1.8,1.22
			c-0.82,0-1.52-0.51-1.8-1.22H21.6v-1.41h0.6c0.2-0.52,0.61-0.93,1.12-1.13v-0.69h0.29v-0.4h-0.89v-0.38h2.61v0.38h-0.97v0.4h0.36
			V17.64z"/>
		<path class="st1" d="M23.84,28.53c1.77,0,3.22,1.45,3.22,3.22c0,1.77-1.45,3.22-3.22,3.22c-1.77,0-3.22-1.45-3.22-3.22
			C20.62,29.98,22.07,28.53,23.84,28.53z"/>
		<polygon class="st2" points="23.49,28.57 23.76,28.57 24.12,29.09 24.12,28.57 24.39,28.57 24.39,29.5 24.12,29.5 23.77,28.99 
			23.77,29.5 23.49,29.5 		"/>
		<polygon class="st2" points="21.99,29.74 24.48,31.78 24.65,32.36 23.95,32.22 		"/>
		<polygon class="st2" points="26.15,31.27 26.92,31.27 26.92,31.47 26.44,31.47 26.44,31.62 26.89,31.62 26.89,31.81 26.44,31.81 
			26.44,32 26.94,32 26.94,32.21 26.15,32.21 		"/>
		<polygon class="st2" points="20.6,31.27 20.88,31.27 20.97,31.79 21.12,31.27 21.39,31.27 21.54,31.79 21.64,31.27 21.91,31.27 
			21.7,32.21 21.42,32.21 21.26,31.62 21.09,32.21 20.81,32.21 		"/>
		<path class="st2" d="M23.44,34.71l0.28-0.02c0.01,0.04,0.02,0.08,0.04,0.1c0.03,0.04,0.07,0.06,0.13,0.06
			c0.04,0,0.07-0.01,0.1-0.03c0.02-0.02,0.03-0.04,0.03-0.07c0-0.02-0.01-0.05-0.03-0.07c-0.02-0.02-0.07-0.04-0.15-0.05
			c-0.13-0.03-0.22-0.07-0.27-0.11c-0.05-0.05-0.08-0.11-0.08-0.18c0-0.05,0.01-0.09,0.04-0.14c0.03-0.04,0.07-0.08,0.13-0.1
			c0.06-0.02,0.13-0.04,0.23-0.04c0.12,0,0.21,0.02,0.27,0.07c0.06,0.04,0.1,0.12,0.11,0.21l-0.27,0.02
			c-0.01-0.04-0.02-0.07-0.05-0.09c-0.02-0.02-0.06-0.03-0.1-0.03c-0.03,0-0.06,0.01-0.08,0.02c-0.02,0.01-0.03,0.03-0.03,0.05
			c0,0.01,0.01,0.03,0.02,0.04c0.01,0.01,0.05,0.02,0.1,0.03c0.13,0.03,0.22,0.06,0.27,0.08c0.05,0.03,0.09,0.06,0.12,0.1
			c0.02,0.04,0.04,0.09,0.04,0.14c0,0.06-0.02,0.12-0.05,0.17c-0.03,0.05-0.08,0.09-0.14,0.12c-0.06,0.03-0.13,0.04-0.23,0.04
			c-0.16,0-0.27-0.03-0.33-0.09C23.49,34.88,23.45,34.8,23.44,34.71z"/>
		<polygon class="st3" points="8.32,17 5.69,15.79 5.25,16.71 4.71,16.47 5.89,14 6.42,14.24 5.98,15.16 8.62,16.37 		"/>
		<path class="st3" d="M7.81,11.13l0.46-0.52l1.43,1.22c0.23,0.19,0.38,0.31,0.46,0.36c0.13,0.07,0.26,0.09,0.4,0.06
			c0.14-0.03,0.27-0.12,0.4-0.26c0.13-0.15,0.2-0.29,0.2-0.41c0-0.13-0.03-0.24-0.11-0.33c-0.08-0.09-0.22-0.23-0.43-0.41L9.17,9.59
			l0.46-0.52l1.38,1.18c0.32,0.27,0.53,0.47,0.63,0.61c0.1,0.14,0.17,0.29,0.19,0.44c0.02,0.15,0,0.32-0.05,0.49
			c-0.06,0.17-0.18,0.36-0.36,0.57c-0.22,0.25-0.41,0.41-0.58,0.49c-0.17,0.08-0.34,0.12-0.49,0.11c-0.16,0-0.3-0.04-0.42-0.1
			c-0.18-0.09-0.42-0.27-0.71-0.52L7.81,11.13z"/>
		<polygon class="st3" points="15.26,9.17 12.47,6.76 13.14,6.39 15.16,8.2 14.66,5.57 15.31,5.21 15.91,8.81 		"/>
		<path class="st3" d="M21.99,6.84l-0.75,0.16l-0.46-0.7l-1.37,0.29L19.29,7.4l-0.73,0.15l0.6-3.64l0.73-0.15L21.99,6.84L21.99,6.84
			z M20.43,5.77l-0.74-1.15L19.5,5.97L20.43,5.77z"/>
		<polygon class="st3" points="24.38,6.76 24.62,3.34 25.31,3.39 26.57,5.77 26.73,3.48 27.39,3.53 27.15,6.95 26.44,6.9 
			25.19,4.58 25.03,6.81 		"/>
		<path class="st3" d="M30.43,6.09c0.14-0.32,0.31-0.57,0.51-0.74c0.14-0.13,0.31-0.23,0.49-0.3c0.18-0.07,0.36-0.11,0.54-0.1
			c0.24,0,0.48,0.06,0.74,0.18c0.47,0.21,0.78,0.51,0.93,0.92c0.15,0.41,0.11,0.87-0.12,1.38c-0.23,0.51-0.55,0.84-0.96,1
			c-0.41,0.16-0.85,0.14-1.32-0.06c-0.47-0.21-0.79-0.51-0.94-0.92C30.16,7.04,30.2,6.59,30.43,6.09L30.43,6.09z M31.1,6.36
			c-0.16,0.36-0.2,0.66-0.12,0.92c0.08,0.26,0.25,0.44,0.51,0.55c0.26,0.11,0.51,0.11,0.76,0c0.25-0.11,0.45-0.35,0.62-0.71
			c0.16-0.36,0.2-0.66,0.12-0.91c-0.08-0.25-0.25-0.43-0.52-0.54c-0.27-0.12-0.52-0.12-0.76-0.01C31.47,5.76,31.26,6,31.1,6.36z"/>
		<path class="st3" d="M35.58,9.54l0.55,0.41c-0.13,0.19-0.18,0.37-0.16,0.53c0.02,0.16,0.11,0.32,0.26,0.46
			c0.17,0.15,0.32,0.23,0.47,0.24c0.15,0.01,0.27-0.03,0.36-0.13c0.06-0.06,0.09-0.13,0.09-0.2c0-0.07-0.02-0.17-0.08-0.28
			c-0.04-0.08-0.14-0.24-0.31-0.49c-0.21-0.32-0.33-0.58-0.35-0.78c-0.03-0.28,0.06-0.52,0.24-0.72c0.12-0.13,0.27-0.21,0.45-0.26
			c0.18-0.04,0.37-0.03,0.56,0.04c0.19,0.07,0.39,0.19,0.58,0.37c0.32,0.29,0.5,0.58,0.53,0.87c0.03,0.29-0.06,0.55-0.27,0.79
			l-0.54-0.45c0.1-0.15,0.14-0.29,0.12-0.41c-0.02-0.12-0.1-0.25-0.25-0.38c-0.15-0.14-0.3-0.21-0.44-0.23
			c-0.09-0.01-0.17,0.02-0.23,0.08c-0.06,0.06-0.08,0.13-0.07,0.22c0.01,0.11,0.12,0.31,0.31,0.6c0.2,0.29,0.32,0.52,0.39,0.69
			c0.06,0.17,0.07,0.34,0.04,0.51c-0.03,0.17-0.13,0.33-0.28,0.49c-0.14,0.14-0.31,0.24-0.51,0.29c-0.2,0.05-0.4,0.04-0.61-0.04
			c-0.21-0.08-0.42-0.22-0.64-0.42c-0.32-0.3-0.5-0.6-0.54-0.9C35.25,10.16,35.35,9.85,35.58,9.54z"/>
		<path class="st3" d="M40.06,17.01l-0.38-0.65l0.53-0.65l-0.7-1.19l-0.83,0.14l-0.37-0.64l3.71-0.56l0.37,0.63L40.06,17.01
			L40.06,17.01z M40.61,15.23l0.88-1.05l-1.36,0.24L40.61,15.23z"/>
		<path class="st3" d="M5.47,33.55 M8.65,32.25l0.62,1.06c0.14,0.24,0.23,0.43,0.26,0.58c0.05,0.2,0.04,0.39-0.03,0.58
			C9.43,34.66,9.32,34.83,9.17,35c-0.16,0.16-0.38,0.32-0.66,0.47c-0.25,0.13-0.48,0.21-0.69,0.25c-0.26,0.04-0.5,0.04-0.71-0.03
			c-0.16-0.05-0.32-0.14-0.48-0.28c-0.12-0.11-0.24-0.26-0.36-0.48l-0.63-1.09L8.65,32.25L8.65,32.25z M8.47,33.1l-1.99,1.05
			l0.25,0.43c0.09,0.16,0.17,0.27,0.23,0.34c0.08,0.08,0.17,0.14,0.26,0.17c0.09,0.03,0.22,0.03,0.38,0
			c0.16-0.03,0.35-0.11,0.59-0.23c0.23-0.12,0.4-0.24,0.5-0.34c0.1-0.11,0.17-0.21,0.2-0.32c0.03-0.11,0.02-0.22-0.01-0.34
			c-0.03-0.09-0.11-0.25-0.25-0.49L8.47,33.1z"/>
		<path class="st3" d="M8.49,37.91 M8.74,38.14l2.39-2.36l1.84,1.69l-0.4,0.4l-1.34-1.23l-0.53,0.52l1.24,1.14l-0.4,0.4l-1.24-1.14
			L9.65,38.2l1.38,1.27l-0.4,0.4L8.74,38.14z"/>
		<path class="st3" d="M12.41,41.2 M13.12,40.36l0.62,0.27c-0.08,0.21-0.09,0.38-0.04,0.53c0.05,0.15,0.17,0.27,0.36,0.37
			c0.19,0.11,0.36,0.15,0.51,0.12c0.15-0.02,0.25-0.09,0.31-0.19c0.04-0.07,0.05-0.14,0.04-0.21c-0.01-0.07-0.06-0.15-0.14-0.24
			c-0.06-0.06-0.19-0.19-0.41-0.39c-0.28-0.25-0.45-0.47-0.51-0.65c-0.09-0.26-0.06-0.5,0.07-0.72c0.09-0.14,0.21-0.26,0.38-0.34
			c0.16-0.08,0.34-0.11,0.55-0.08c0.2,0.02,0.42,0.1,0.65,0.22c0.37,0.21,0.61,0.44,0.7,0.7c0.09,0.26,0.07,0.52-0.08,0.79
			l-0.62-0.31c0.06-0.16,0.07-0.3,0.02-0.41c-0.05-0.11-0.15-0.21-0.32-0.31c-0.17-0.1-0.33-0.14-0.47-0.12
			c-0.09,0.01-0.16,0.05-0.2,0.12c-0.04,0.07-0.05,0.14-0.02,0.22c0.04,0.1,0.19,0.27,0.44,0.49c0.25,0.23,0.43,0.41,0.53,0.56
			c0.1,0.15,0.15,0.3,0.15,0.47c0,0.17-0.05,0.34-0.16,0.52c-0.1,0.16-0.24,0.29-0.42,0.38c-0.18,0.09-0.38,0.12-0.59,0.1
			c-0.22-0.03-0.45-0.11-0.71-0.25c-0.38-0.21-0.62-0.45-0.72-0.73C12.94,41.01,12.96,40.7,13.12,40.36z"/>
		<path class="st3" d="M17.04,43.45 M18.32,40.39l1.22,0.33c0.28,0.07,0.48,0.15,0.61,0.23c0.18,0.11,0.32,0.25,0.41,0.43
			c0.1,0.18,0.15,0.38,0.16,0.6c0.01,0.22-0.03,0.48-0.12,0.78c-0.08,0.26-0.18,0.47-0.3,0.64c-0.15,0.21-0.33,0.36-0.52,0.46
			c-0.15,0.08-0.33,0.12-0.55,0.12c-0.16,0-0.36-0.03-0.61-0.09l-1.26-0.34L18.32,40.39L18.32,40.39z M18.83,41.1l-0.63,2.09
			l0.5,0.14c0.19,0.05,0.32,0.08,0.41,0.08c0.12,0,0.22-0.01,0.31-0.06c0.09-0.04,0.18-0.13,0.27-0.26
			c0.09-0.13,0.17-0.32,0.24-0.56c0.07-0.24,0.11-0.44,0.1-0.58c-0.01-0.14-0.04-0.26-0.1-0.36c-0.06-0.1-0.15-0.17-0.27-0.23
			c-0.09-0.05-0.27-0.11-0.54-0.18L18.83,41.1z"/>
		<path class="st3" d="M22.42,44.5 M22.77,44.51l0.12-3.28l2.55,0.08l-0.02,0.56l-1.86-0.06l-0.03,0.73l1.73,0.06l-0.02,0.55
			l-1.73-0.06l-0.03,0.89l1.92,0.06l-0.02,0.55L22.77,44.51z"/>
		<path class="st3" d="M30.21,43.72 M31.96,43.05l-0.61,0.24l-0.93-2.2c-0.14,0.29-0.34,0.53-0.6,0.75l-0.22-0.53
			c0.14-0.11,0.27-0.27,0.4-0.48c0.13-0.21,0.19-0.42,0.18-0.64l0.5-0.19L31.96,43.05z"/>
		<path class="st3" d="M34.5,41.94 M34.21,41.2l0.48-0.41c0.09,0.09,0.18,0.14,0.27,0.15c0.09,0.01,0.18-0.01,0.27-0.07
			c0.11-0.08,0.17-0.19,0.17-0.34c0-0.15-0.1-0.38-0.31-0.7c-0.02,0.24-0.13,0.43-0.33,0.57c-0.22,0.15-0.47,0.2-0.75,0.15
			c-0.28-0.05-0.52-0.21-0.72-0.46c-0.21-0.27-0.29-0.54-0.24-0.83c0.04-0.28,0.19-0.51,0.45-0.69c0.28-0.2,0.59-0.25,0.93-0.17
			c0.34,0.08,0.69,0.36,1.05,0.84c0.37,0.49,0.54,0.9,0.52,1.25c-0.03,0.34-0.19,0.62-0.49,0.83c-0.22,0.15-0.44,0.22-0.65,0.2
			C34.63,41.5,34.42,41.39,34.21,41.2L34.21,41.2z M34.57,39.25c-0.13-0.16-0.26-0.26-0.41-0.3c-0.15-0.04-0.27-0.02-0.38,0.05
			c-0.1,0.07-0.15,0.16-0.16,0.28c-0.01,0.12,0.05,0.26,0.18,0.43c0.13,0.17,0.26,0.27,0.39,0.3c0.13,0.03,0.25,0.01,0.36-0.06
			c0.1-0.07,0.16-0.17,0.17-0.3C34.74,39.54,34.69,39.4,34.57,39.25z"/>
		<path class="st3" d="M38.22,39.23 M36.33,37.28l-0.45-0.4l1.54-1.57l0.35,0.31c0.01,0.25,0.07,0.55,0.19,0.91
			c0.12,0.36,0.29,0.7,0.5,1.02c0.21,0.32,0.43,0.58,0.66,0.78l-0.43,0.44c-0.34-0.32-0.63-0.7-0.86-1.15
			c-0.24-0.45-0.39-0.91-0.46-1.38L36.33,37.28z"/>
		<path class="st3" d="M41.27,35.84 M41.99,34.6l-0.61-0.32l-0.68,1.17l-0.51-0.27l-1.19-2.25l0.27-0.46l1.91,1.01l0.21-0.36
			l0.51,0.27l-0.21,0.36l0.61,0.32L41.99,34.6L41.99,34.6z M40.88,34.01l-1.03-0.54l0.65,1.2L40.88,34.01z"/>
	</g>
</g>
</svg>
