<svg width="30" height="30" viewBox="0 0 30 30" fill="none" xmlns="http://www.w3.org/2000/svg">
<g clip-path="url(#clip0_1141_87)">
<path d="M9.67 33.02C8.84 33.02 8.13 32.73 7.55 32.15C6.97 31.57 6.68 30.86 6.68 30.03C6.68 29.2 6.97 28.49 7.55 27.91C8.13 27.33 8.84 27.04 9.67 27.04C10.5 27.04 11.21 27.33 11.79 27.91C12.37 28.49 12.66 29.2 12.66 30.03C12.66 30.86 12.37 31.57 11.79 32.15C11.21 32.73 10.5 33.02 9.67 33.02ZM26.25 33.02C25.42 33.02 24.71 32.73 24.13 32.15C23.55 31.57 23.26 30.86 23.26 30.03C23.26 29.2 23.55 28.49 24.13 27.91C24.71 27.33 25.42 27.04 26.25 27.04C27.08 27.04 27.79 27.33 28.37 27.91C28.95 28.49 29.24 29.2 29.24 30.03C29.24 30.86 28.95 31.57 28.37 32.15C27.79 32.73 27.08 33.02 26.25 33.02ZM7.72 5.99L12.06 15.07H23.72C23.82 15.07 23.91 15.05 23.98 15C24.06 14.95 24.12 14.88 24.18 14.79L28.77 6.45C28.84 6.33 28.84 6.22 28.79 6.13C28.74 6.04 28.64 5.99 28.51 5.99H7.72ZM6.49 3.42H30.24C30.94 3.42 31.47 3.72 31.83 4.31C32.19 4.91 32.21 5.51 31.88 6.13L26.4 16.06C26.12 16.55 25.75 16.94 25.29 17.21C24.83 17.49 24.32 17.62 23.77 17.62H11.29L9.31 21.24C9.22 21.37 9.22 21.51 9.31 21.67C9.39 21.82 9.52 21.9 9.68 21.9H29.25V24.47H9.67C8.53 24.47 7.67 23.98 7.1 22.99C6.53 22.01 6.51 21.02 7.04 20.04L9.48 15.65L3.26 2.57H0V0H4.87L6.49 3.42Z" fill="white"/>
</g>
<defs>
<clipPath id="clip0_1141_87">
<rect width="32.11" height="33.02" fill="white"/>
</clipPath>
</defs>
</svg>
