<svg width="376" height="131" viewBox="0 0 376 131" fill="none" xmlns="http://www.w3.org/2000/svg">
<g clip-path="url(#clip0_1141_95)">
<path d="M223.294 105.212L223.112 97.3831C223.085 96.1512 223.012 95.0836 222.931 94.1802L224.531 93.8426L224.667 95.8957H224.731C225.404 94.1984 226.576 93.1491 227.977 92.8479C229.595 92.5012 230.577 93.3589 230.95 94.6821C231.568 92.9483 232.75 91.8442 234.341 91.4792C235.568 91.2145 237.068 91.7164 237.496 93.7148C237.605 94.2167 237.687 94.9376 237.705 95.549L237.859 102.083L236.086 102.466L235.923 96.0965C235.923 95.6858 235.877 95.1201 235.786 94.6821C235.55 93.5688 234.977 92.9301 233.795 93.1856C232.486 93.4593 231.259 95.33 231.322 97.7937L231.459 103.46L229.704 103.835L229.559 97.3466C229.549 96.8721 229.504 96.4432 229.413 96.0235C229.222 95.1201 228.786 94.2532 227.449 94.5361C226.113 94.819 224.849 96.9269 224.913 99.272L225.067 104.82L223.294 105.203V105.212Z" fill="#009FE3"/>
<path d="M247.988 99.9199C247.851 99.2811 247.742 98.25 247.642 97.1185H247.597C246.906 99.5731 245.633 100.677 244.124 100.997C242.26 101.389 240.769 100.157 240.332 98.1405C239.55 94.454 241.423 89.9644 246.042 88.9698C247.051 88.7508 248.197 88.696 248.979 88.7781L249.088 94.5361C249.124 96.4523 249.379 98.3777 249.67 99.5458L247.988 99.9016V99.9199ZM247.197 90.4024C246.924 90.3933 246.506 90.3933 245.897 90.521C243.16 91.105 241.542 94.4631 242.151 97.4105C242.405 98.5967 243.069 99.6644 244.469 99.3724C245.978 99.0439 247.351 96.6896 247.269 93.7422L247.197 90.4115V90.4024ZM247.997 84.1791L245.733 87.9386L244.315 88.2397L245.806 84.6353L247.997 84.17V84.1791Z" fill="#009FE3"/>
<path d="M252.079 97.1185C252.643 97.3192 253.643 97.4744 254.488 97.2827C255.716 97.0181 256.334 96.06 256.134 95.1201C255.952 94.2897 255.479 93.8608 254.252 93.4776C252.879 93.0578 251.997 92.2639 251.779 91.1872C251.379 89.3165 252.67 87.5463 254.897 87.0718C255.861 86.8619 256.77 86.944 257.216 87.1265L257.007 88.6139C256.588 88.477 255.852 88.3584 255.07 88.5226C253.97 88.7599 253.334 89.6085 253.525 90.5302C253.688 91.2967 254.297 91.6799 255.343 91.9993C256.67 92.4282 257.67 93.1765 257.925 94.3627C258.398 96.5984 256.852 98.2591 254.625 98.7428C253.479 98.9709 252.406 98.8249 251.843 98.5603L252.061 97.1185H252.079Z" fill="#009FE3"/>
<path d="M264.571 85.2559L266.835 90.7401C267.335 91.9172 267.635 92.6837 267.917 93.4411H267.953C268.09 92.6928 268.244 91.8807 268.544 90.594L269.972 84.097L271.899 83.6772L269.662 92.6016C269.017 95.1475 268.344 97.2463 267.199 98.9526C266.271 100.413 265.089 101.197 264.507 101.462L263.744 99.9929C264.171 99.7192 264.871 99.272 265.471 98.542C266.053 97.8485 266.635 96.8265 266.98 95.6767C267.026 95.4851 266.999 95.3482 266.944 95.1749L262.698 85.6391L264.58 85.2376L264.571 85.2559Z" fill="#009FE3"/>
<path d="M278.136 93.4593L277.954 85.6209C277.927 84.389 277.854 83.3213 277.781 82.4179L279.382 82.0803L279.518 84.1335H279.582C280.254 82.4453 281.427 81.3868 282.827 81.0857C284.446 80.7389 285.428 81.6058 285.8 82.9198C286.41 81.1861 287.601 80.0819 289.192 79.7169C290.419 79.4523 291.919 79.9542 292.346 81.9526C292.456 82.4636 292.537 83.1753 292.556 83.7867L292.71 90.3203L290.937 90.6944L290.774 84.3251C290.774 83.9145 290.728 83.3487 290.628 82.9107C290.392 81.7974 289.819 81.1587 288.637 81.4142C287.328 81.6879 286.1 83.5677 286.164 86.0315L286.291 91.6982L284.537 92.0723L284.391 85.5844C284.382 85.1098 284.337 84.681 284.246 84.2612C284.055 83.3578 283.618 82.4909 282.282 82.7738C280.945 83.0567 279.682 85.1646 279.745 87.5189L279.891 93.0578L278.118 93.4411L278.136 93.4593Z" fill="#009FE3"/>
<path d="M303.311 87.4185C302.62 88.0481 301.411 88.7143 299.993 89.0154C297.192 89.6177 295.556 87.9478 295.056 85.6026C294.374 82.3997 295.965 78.266 299.374 77.536C301.384 77.1071 302.738 78.0744 303.057 79.5892C303.648 82.3815 300.684 83.7958 296.756 84.5624C296.765 85.0369 297.047 86.0224 297.401 86.5334C298.02 87.3911 298.974 87.6923 300.065 87.455C301.311 87.1904 302.166 86.5881 302.747 86.0954L303.302 87.4003L303.311 87.4185ZM301.329 80.0181C301.147 79.1603 300.384 78.8227 299.42 79.0234C297.692 79.3975 296.765 81.3594 296.683 83.1206C299.529 82.5366 301.684 81.6788 301.329 80.0363V80.0089V80.0181Z" fill="#009FE3"/>
<path d="M307.393 76.076L307.63 87.09C307.675 88.9424 307.548 90.1378 307.057 90.9773C306.593 91.7803 305.739 92.3278 304.848 92.5286C304.384 92.6289 303.993 92.6928 303.62 92.6563L303.538 91.1872C303.748 91.1872 304.02 91.178 304.384 91.0959C305.302 90.9043 305.902 90.1743 305.848 87.893L305.566 76.4775L307.375 76.0851L307.393 76.076ZM306.457 74.3696C305.839 74.4974 305.33 74.105 305.184 73.448C305.057 72.7362 305.466 72.0975 306.121 71.9606C306.775 71.8237 307.293 72.2161 307.439 72.8731C307.566 73.6031 307.175 74.2145 306.475 74.3696H306.457Z" fill="#009FE3"/>
<path d="M319.458 77.8736C320.149 81.1495 318.558 85.046 315.012 85.8034C312.367 86.3691 310.457 84.7083 309.948 82.3176C309.203 78.8226 310.939 75.0631 314.376 74.324C317.24 73.7126 318.967 75.6106 319.458 77.8736ZM311.821 81.8522C312.185 83.586 313.394 84.6353 314.949 84.3068C317.085 83.8506 318.122 80.7298 317.594 78.2569C317.331 77.025 316.394 75.419 314.494 75.8296C312.212 76.3132 311.276 79.434 311.821 81.8613" fill="#009FE3"/>
<path d="M322.095 84.0331L321.931 76.9064C321.904 75.4646 321.777 74.0229 321.677 73.01L323.268 72.6632C323.34 73.4297 323.404 74.1962 323.477 75.0266H323.54C323.904 73.4206 324.813 72.0792 326.232 71.769C326.386 71.7416 326.604 71.7142 326.741 71.7051L326.768 73.5848C326.659 73.5848 326.477 73.6031 326.277 73.6487C324.704 73.9864 323.713 76.1946 323.777 78.777L323.895 83.6316L322.077 84.024L322.095 84.0331Z" fill="#009FE3"/>
<path d="M340.042 80.1914C339.906 79.5526 339.797 78.5215 339.706 77.39H339.66C338.969 79.8447 337.696 80.9397 336.187 81.2682C334.323 81.6605 332.832 80.4287 332.396 78.412C331.614 74.7255 333.496 70.2359 338.105 69.2504C339.115 69.0314 340.269 68.9675 341.042 69.0588L341.142 74.8167C341.188 76.733 341.433 78.6584 341.733 79.8355L340.051 80.2005L340.042 80.1914ZM339.251 70.6739C338.978 70.6739 338.56 70.6557 337.951 70.7926C335.214 71.3766 333.596 74.7346 334.205 77.6729C334.46 78.8591 335.114 79.9359 336.514 79.6348C338.024 79.3154 339.396 76.952 339.324 74.0046L339.251 70.6648V70.6739Z" fill="#009FE3"/>
<path d="M345.07 81.6332C345.788 81.8978 346.906 81.9708 348.015 81.7336C349.788 81.3594 350.988 80.1275 351.007 77.1254L351.025 75.4646L350.961 75.4829C350.37 77.1893 349.234 78.2204 347.77 78.5306C345.652 78.9869 344.179 77.4174 343.77 75.5285C342.988 71.9332 344.87 67.7904 348.961 66.9144C350.188 66.6498 351.598 66.7136 352.507 66.9326L352.752 76.0577C352.798 78.3938 352.534 80.0819 351.616 81.2591C350.761 82.4088 349.397 82.9746 348.17 83.2301C346.879 83.5038 345.615 83.4582 344.833 83.1571L345.061 81.6241L345.07 81.6332ZM350.743 68.4383C350.379 68.3562 349.688 68.3014 348.925 68.4657C346.279 69.0314 345.052 72.1887 345.588 74.8259C345.843 75.9939 346.552 77.2805 348.17 76.9338C349.716 76.6053 350.898 74.2875 350.825 72.1157L350.752 68.4383H350.743Z" fill="#009FE3"/>
<path d="M363.962 63.9487L364.144 71.7872C364.172 73.0191 364.244 74.0867 364.317 74.9901L362.681 75.3369L362.535 73.2837H362.49C361.844 74.8806 360.626 76.0304 359.226 76.3315C357.871 76.6235 356.307 76.2676 355.798 73.8495C355.689 73.3476 355.634 72.7636 355.625 72.0336L355.48 65.7829L357.298 65.3905L357.444 71.5591C357.444 72.1796 357.48 72.6997 357.58 73.1651C357.807 74.2601 358.426 74.908 359.671 74.6434C360.98 74.3605 362.344 72.4624 362.28 70.026L362.153 64.3594L363.972 63.967L363.962 63.9487Z" fill="#009FE3"/>
<path d="M374.309 72.8366C374.173 72.1978 374.063 71.1667 373.973 70.0352H373.927C373.236 72.4898 371.963 73.5848 370.454 73.9133C368.599 74.3057 367.099 73.0738 366.663 71.0481C365.881 67.3615 367.763 62.872 372.381 61.8865C373.382 61.6675 374.536 61.6036 375.309 61.6948L375.409 67.4528C375.454 69.369 375.7 71.2944 376 72.4716L374.318 72.8366H374.309ZM373.527 63.3191C373.245 63.31 372.836 63.3008 372.218 63.4377C369.49 64.0217 367.863 67.3798 368.472 70.3181C368.727 71.5043 369.39 72.572 370.781 72.2799C372.291 71.9514 373.663 69.5972 373.591 66.6498L373.527 63.31V63.3191Z" fill="#009FE3"/>
<path d="M342.479 48.8102C343.37 48.8102 344.233 49.0383 345.088 49.4946C345.933 49.9508 346.597 50.6078 347.07 51.4656C347.543 52.3233 347.779 53.2085 347.779 54.1392C347.779 55.07 347.552 55.9369 347.079 56.7855C346.615 57.6342 345.952 58.2912 345.115 58.7657C344.27 59.231 343.388 59.4683 342.479 59.4683C341.569 59.4683 340.678 59.231 339.833 58.7657C338.987 58.2912 338.333 57.6342 337.86 56.7855C337.387 55.9369 337.16 55.0518 337.16 54.1392C337.16 53.2267 337.396 52.3233 337.878 51.4656C338.351 50.6078 339.015 49.9508 339.869 49.4946C340.715 49.0292 341.588 48.8102 342.479 48.8102ZM342.479 49.6953C341.733 49.6953 341.006 49.8869 340.297 50.2702C339.596 50.6535 339.033 51.201 338.642 51.9127C338.242 52.6245 338.042 53.3727 338.042 54.1392C338.042 54.9058 338.242 55.6449 338.624 56.3475C339.024 57.0501 339.569 57.5977 340.269 57.99C340.969 58.3824 341.706 58.574 342.469 58.574C343.233 58.574 343.961 58.3824 344.67 57.99C345.361 57.5977 345.915 57.0501 346.306 56.3475C346.697 55.6449 346.888 54.9058 346.888 54.1392C346.888 53.3727 346.688 52.6245 346.297 51.9127C345.897 51.201 345.343 50.6535 344.642 50.2702C343.933 49.8869 343.206 49.6953 342.469 49.6953M340.142 57.0958V51.3561H342.106C342.779 51.3561 343.26 51.4017 343.57 51.5112C343.87 51.6207 344.115 51.8032 344.288 52.0678C344.47 52.3325 344.552 52.6062 344.552 52.9074C344.552 53.3271 344.406 53.6921 344.097 54.0024C343.806 54.3217 343.406 54.486 342.906 54.5316C343.106 54.6137 343.27 54.7141 343.397 54.8327C343.624 55.0518 343.906 55.435 344.242 55.9643L344.942 57.0866H343.815L343.306 56.1833C342.906 55.4806 342.579 55.0335 342.342 54.851C342.169 54.7232 341.924 54.6502 341.606 54.6502H341.06V57.0958H340.151H340.142ZM341.051 53.8655H342.179C342.715 53.8655 343.088 53.7834 343.279 53.6282C343.47 53.4731 343.57 53.2632 343.57 52.9986C343.57 52.8252 343.524 52.6792 343.433 52.5423C343.342 52.4146 343.206 52.3051 343.042 52.2412C342.879 52.1773 342.57 52.1408 342.115 52.1408H341.06V53.8746L341.051 53.8655Z" fill="black"/>
<path d="M294.719 56.5574V41.7747C294.719 37.7141 293.874 34.5659 292.174 32.2846C290.483 30.0307 288.392 28.5798 285.928 27.9228C283.446 27.2841 280.545 27.3023 277.218 28.0141C272.735 28.954 267.98 31.1531 262.962 34.5841V46.2734C266.517 42.7511 270.063 40.479 273.39 39.5117C275.845 38.7999 278.245 38.3984 279.473 38.9916C281.345 39.9041 281.282 41.3276 281.318 43.034C266.189 48.1714 258.607 55.143 258.607 63.9579C258.607 67.8543 259.952 70.9021 262.634 73.0556C265.317 75.2182 268.381 75.93 271.781 75.2182C273.536 74.8532 275.208 74.0593 276.79 72.8548C278.372 71.6321 279.891 70.0352 281.318 68.0003C281.345 72.0518 283.427 71.7689 284.391 71.5499C285.355 71.3492 297.356 68.8215 297.356 68.8215C295.638 68.1554 294.292 66.4034 294.719 56.5665M281.318 55.9734C281.318 57.9079 280.927 59.5869 280.145 61.0104C279.354 62.4431 278.227 63.3191 276.754 63.6294C275.49 63.894 274.399 63.5928 273.49 62.7533C272.563 61.9047 272.099 60.7002 272.099 59.1763C272.099 55.1339 275.172 52.1773 281.318 50.3158V55.9734Z" fill="black"/>
<path d="M152.651 65.9471L146.05 67.3433V85.3471C146.05 88.1211 147.142 89.2709 149.351 88.8055C150.424 88.5774 151.515 87.9386 152.651 86.871V98.7701C149.951 100.285 147.205 101.353 144.414 101.946C139.868 102.904 136.531 102.511 134.404 100.805C132.276 99.0986 131.204 95.9414 131.204 91.3971V70.4732L125.876 71.6047V60.8006C125.876 60.8006 130.267 59.8607 131.24 59.6599C130.658 49.1387 133.477 48.2627 136.595 47.5418L145.405 45.8719V56.6578L152.651 55.1248V65.938V65.9471Z" fill="black"/>
<path d="M247.697 20.8326C246.315 21.2341 241.123 23.3238 240.978 32.5584V80.5655L248.915 78.8957C250.297 78.4941 255.497 76.3954 255.643 67.1516V19.1627L247.697 20.8326Z" fill="black"/>
<path d="M233.568 43.9648C230.813 40.1322 227.113 38.6904 222.494 39.676C220.494 40.1048 218.694 40.9717 217.048 42.3131C215.63 43.472 214.33 44.9776 213.166 46.8574C213.148 44.7951 213.43 42.7511 211.193 43.0614C208.875 43.5359 198.01 45.8719 198.01 45.8719C198.01 45.8719 198.61 46.5563 198.701 47.8247C198.783 49.0839 198.665 110.222 198.665 110.222L207.62 108.315C210.82 107.439 213.339 106.946 213.339 99.5458L213.321 84.1061C214.603 84.9912 215.903 85.5935 217.239 85.9129C218.63 86.2322 220.067 86.2414 221.54 85.9129C224.622 85.265 227.386 83.6133 229.822 80.9671C232.268 78.3299 234.186 75.0905 235.596 71.2306C236.996 67.3889 237.705 63.2187 237.705 58.8022C237.705 52.734 236.323 47.7882 233.577 43.9465M221.303 70.5827C220.339 72.6815 218.967 73.9134 217.212 74.2875C216.412 74.4517 215.684 74.4061 215.003 74.1323C214.339 73.8586 213.721 73.375 213.157 72.7088V62.0325C213.157 59.3953 213.539 57.3422 214.303 55.8821C215.048 54.4039 216.175 53.5279 217.657 53.2176C219.194 52.9074 220.43 53.5187 221.367 55.0974C222.303 56.676 222.767 59.1307 222.767 62.4887C222.767 65.8468 222.267 68.4748 221.294 70.5827" fill="black"/>
<path d="M326.868 59.377C323.495 63.018 319.14 65.4087 313.821 66.5311C309.339 67.471 304.575 67.1973 299.456 65.719V52.3142C304.129 55.1978 308.166 56.2745 311.585 55.5628C312.885 55.2799 314.021 54.6959 314.967 53.8107C315.912 52.9165 316.376 51.9036 316.376 50.7629C316.376 49.9143 316.003 49.2573 315.249 48.8102C314.503 48.363 313.112 47.9707 311.076 47.5965C306.184 46.7205 303.038 45.3153 301.593 43.3716C300.165 41.4371 299.447 39.3474 299.447 37.13C299.447 33.0511 301.129 29.4011 304.484 26.1982C307.83 23.0044 311.912 20.8874 316.703 19.8745C320.867 18.9985 324.977 19.0897 329.05 20.1391V33.2245C325.659 30.9797 322.413 30.2132 319.313 30.852C317.922 31.144 316.867 31.5911 316.167 32.2299C315.458 32.8321 315.112 33.5986 315.112 34.5568C315.112 35.8617 316.631 36.6738 319.649 37.0205C327.841 38.0152 331.95 41.5375 331.95 47.5692C331.95 51.8032 330.259 55.7544 326.868 59.3862" fill="black"/>
<path d="M119.793 67.0695C115.938 63.8757 110.993 62.9176 104.965 64.1951C98.8914 65.4909 93.9909 68.6755 90.2724 73.7765C86.5538 78.8683 84.6809 84.8635 84.6809 91.7621C84.6809 98.6606 86.4629 103.451 90.0087 106.992C93.5636 110.514 98.5368 111.618 104.91 110.259C111.274 108.917 116.32 105.687 120.021 100.568C123.739 95.4669 125.594 89.4899 125.594 82.6552C125.594 75.4464 123.657 70.2542 119.793 67.0695ZM109.129 95.038C108.229 97.155 106.856 98.4051 105.028 98.7884C103.228 99.1716 101.873 98.4964 100.982 96.7444C100.073 95.0015 99.6369 92.1909 99.6369 88.3401C99.6369 84.4894 100.082 81.3868 101.001 79.2515C101.919 77.0889 103.292 75.8296 105.092 75.4464C106.892 75.0722 108.238 75.7566 109.147 77.5452C110.056 79.288 110.502 82.1533 110.502 86.0954C110.502 90.0374 110.056 92.9301 109.147 95.0562" fill="black"/>
<path d="M189.882 52.5697C186.018 49.3851 181.072 48.4269 175.053 49.7044C168.971 50.982 164.08 54.1757 160.352 59.2767C156.642 64.3685 154.77 70.3637 154.77 77.2623C154.77 84.1608 156.552 88.9515 160.097 92.4921C163.652 96.0143 168.625 97.1094 174.99 95.768C181.354 94.4175 186.4 91.178 190.118 86.0771C193.819 80.9671 195.673 74.9901 195.673 68.1554C195.673 60.9466 193.746 55.7544 189.873 52.5697M179.208 80.529C178.308 82.6552 176.935 83.9053 175.108 84.2886C173.299 84.6627 171.944 83.9875 171.053 82.2354C170.144 80.4925 169.698 77.6729 169.698 73.8221C169.698 69.9713 170.144 66.887 171.062 64.7335C171.98 62.5708 173.344 61.3116 175.144 60.9283C176.944 60.5542 178.308 61.2477 179.208 63.0088C180.108 64.77 180.554 67.6261 180.554 71.5682C180.554 75.5102 180.108 78.3938 179.208 80.5199" fill="black"/>
<path d="M80.7987 95.5125C80.035 91.9628 77.8439 88.6595 74.6527 87.7196C80.0441 84.827 84.4536 79.8994 84.4536 70.5462C84.4536 65.9563 82.3807 61.0834 79.4259 59.2037C76.4619 57.3148 72.998 56.9589 66.5246 58.4828C66.5246 58.4828 49.7503 62.1328 43.8042 63.1457C45.0316 63.3008 45.4044 64.0582 45.4317 65.4817C45.4589 66.9053 45.4135 121.428 45.4135 121.428L53.4233 119.876C57.1419 119 59.9876 117.696 60.124 111.335L60.0785 94.2167L61.3878 93.9429C63.3061 93.5414 66.0973 93.3863 67.4065 97.6842C68.0793 99.929 69.0521 106.745 69.7249 111.135C70.4068 115.515 73.3162 115.715 75.5619 115.323C77.7893 114.931 86.3265 113.17 87.1084 112.978C83.2171 112.002 81.8625 100.504 80.7987 95.5033M68.143 79.9998C66.9974 81.5054 65.3427 82.4727 63.1697 82.9198L60.1513 83.5312L60.224 70.8656L63.8971 70.1264C65.9155 69.7067 67.4247 69.8983 68.4157 70.6739C69.4067 71.4678 69.8886 72.8366 69.8795 74.8076C69.8613 76.7604 69.2885 78.4942 68.143 79.9907" fill="black"/>
<path d="M87.5266 35.4602L87.4539 35.3872L87.3721 35.305C84.8264 32.9051 80.8442 32.8139 80.8442 32.8139C77.4802 32.5036 75.7437 32.7135 73.2071 32.9508C34.0215 36.6008 0 71.3036 0 112.978C0 117.924 0.96373 126.583 1.5547 131L2.51843 130.79C2.25476 128.253 1.83654 122.632 1.83654 120.022C1.83654 80.529 34.0942 48.1714 72.707 48.1714C75.3437 48.1714 80.6169 48.5456 82.4262 48.5091H82.508C86.572 48.3996 89.8451 45.0415 89.8451 40.9261C89.8451 38.7908 88.9722 36.8745 87.5721 35.4967L87.5266 35.451" fill="#A0CDEC"/>
<path d="M99.5278 15.0747C97.1276 14.2534 92.5726 13.8975 89.6632 13.8975C61.3514 13.8975 35.8126 26.5175 19.2291 46.2278C13.3286 53.245 8.45536 61.3024 4.15495 72.5811L5.73692 72.2252C10.1828 63.456 15.1469 56.9133 21.0111 51.2283C35.5489 37.1574 55.6417 28.4064 77.8348 28.7806C81.5443 28.8444 85.6719 29.3098 89.245 29.7935C92.3908 30.2223 95.2638 30.7242 96.7457 30.8155C96.9003 30.8155 97.0639 30.8246 97.2276 30.8246C101.646 30.8246 105.228 27.2202 105.228 22.7854C105.228 19.1353 102.819 16.0693 99.5096 15.0747" fill="#009FE3"/>
<path d="M56.8873 14.8648C61.4696 13.569 68.3612 12.6383 71.9979 11.9448C74.8709 11.5341 77.0711 9.03385 77.062 6.01344C77.062 2.83791 74.6163 0.246377 71.5342 0.0456252C69.5067 -0.146002 66.461 0.346754 63.397 1.10414C58.4238 2.33603 53.8961 4.05155 48.4956 7.07196C32.6941 16.6168 26.2025 27.6308 21.9476 35.4237L23.4659 35.3598C32.7213 25.5959 43.1314 18.7612 56.8873 14.8739" fill="#006EB7"/>
</g>
<defs>
<clipPath id="clip0_1141_95">
<rect width="376" height="131" fill="white"/>
</clipPath>
</defs>
</svg>
