<svg width="32" height="31" viewBox="0 0 32 31" fill="none" xmlns="http://www.w3.org/2000/svg">
<g clip-path="url(#clip0_1147_304)">
<path d="M15.66 14.62C13.65 14.62 11.93 13.9 10.5 12.47C9.07 11.04 8.35 9.32 8.35 7.31C8.35 5.3 9.07 3.58 10.5 2.15C11.93 0.72 13.65 0 15.66 0C17.67 0 19.39 0.72 20.82 2.15C22.25 3.58 22.97 5.3 22.97 7.31C22.97 9.32 22.25 11.04 20.82 12.47C19.39 13.9 17.67 14.62 15.66 14.62ZM0 30.52V25.88C0 24.86 0.28 23.91 0.83 23.04C1.39 22.17 2.13 21.5 3.06 21.03C5.12 20.02 7.21 19.26 9.31 18.75C11.41 18.24 13.53 17.99 15.67 17.99C17.81 17.99 19.92 18.24 22.03 18.75C24.13 19.26 26.21 20.02 28.28 21.03C29.21 21.5 29.95 22.17 30.51 23.04C31.07 23.91 31.34 24.86 31.34 25.88V30.52H0ZM3.13 27.39H28.19V25.88C28.19 25.46 28.07 25.07 27.82 24.71C27.57 24.35 27.24 24.06 26.82 23.83C25.02 22.94 23.19 22.27 21.32 21.82C19.45 21.36 17.56 21.14 15.66 21.14C13.76 21.14 11.87 21.37 10 21.82C8.13 22.28 6.3 22.95 4.5 23.83C4.08 24.06 3.75 24.35 3.5 24.71C3.25 25.07 3.13 25.46 3.13 25.88V27.39ZM15.66 11.49C16.81 11.49 17.79 11.08 18.61 10.26C19.43 9.44 19.84 8.46 19.84 7.31C19.84 6.16 19.43 5.18 18.61 4.36C17.79 3.54 16.81 3.13 15.66 3.13C14.51 3.13 13.53 3.54 12.71 4.36C11.89 5.18 11.48 6.16 11.48 7.31C11.48 8.46 11.89 9.44 12.71 10.26C13.53 11.08 14.51 11.49 15.66 11.49Z" fill="white"/>
</g>
<defs>
<clipPath id="clip0_1147_304">
<rect width="31.33" height="30.52" fill="white"/>
</clipPath>
</defs>
</svg>
