<svg width="29" height="23" viewBox="0 0 29 23" fill="none" xmlns="http://www.w3.org/2000/svg">
<g clip-path="url(#clip0_1195_843)">
<path d="M13.6902 20.5769C4.5874 20.5769 0.617415 15.866 0.450713 15.6622C0.384856 15.5835 0.349869 15.4826 0.349869 15.3797V11.8611C0.349869 11.613 0.555674 11.4112 0.808814 11.4112C1.06195 11.4112 1.26776 11.613 1.26776 11.8611V15.2103C1.94074 15.9285 5.97452 19.8405 14.1779 19.671C24.8016 19.4713 27.5203 16.1182 28.0574 15.2224V12.9284C28.0574 12.6803 28.2632 12.4785 28.5164 12.4785C28.7695 12.4785 28.9753 12.6803 28.9753 12.9284V15.3394C28.9753 15.412 28.9568 15.4846 28.9218 15.5492C27.014 19.0819 20.0639 20.4599 14.1964 20.5709C14.0277 20.5749 13.8569 20.5749 13.6922 20.5749L13.6902 20.5769Z" fill="#0062B2"/>
<path d="M13.5852 18.511C10.1976 18.511 7.14349 17.9178 4.49684 16.7456C4.26634 16.6427 4.16344 16.3764 4.2684 16.1504C4.37336 15.9245 4.64502 15.8256 4.87552 15.9265C7.52629 17.1007 10.6216 17.6757 14.0668 17.6071C14.925 17.593 15.7564 17.5607 16.5385 17.5103C16.7916 17.4961 17.0098 17.6818 17.0263 17.9299C17.0427 18.1781 16.8513 18.3919 16.5982 18.4081C15.8017 18.4585 14.9559 18.4908 14.0853 18.5069C13.9186 18.5089 13.754 18.511 13.5893 18.511H13.5852Z" fill="#0062B2"/>
<path d="M14.678 23C6.87183 23 2.84834 19.7397 1.77198 16.9433C1.68348 16.7113 1.80285 16.4511 2.03953 16.3643C2.2762 16.2776 2.54169 16.3946 2.63019 16.6266C4.08729 20.4115 9.72841 22.1022 14.6904 22.1022H14.7398C19.852 22.0901 25.6824 20.3005 27.191 16.328C27.2795 16.096 27.5429 15.9769 27.7816 16.0637C28.0183 16.1505 28.1397 16.4087 28.0512 16.6427C26.9419 19.5641 22.7929 22.9839 14.7439 23.002H14.6801L14.678 23ZM17.3782 8.77229C17.2691 8.77229 17.1641 8.73396 17.0798 8.66334C16.9789 8.57861 16.9192 8.45352 16.9192 8.32238V4.99747L13.3074 4.2651V5.8872L14.8756 6.68413C15.0999 6.79913 15.1884 7.06948 15.0711 7.2894C14.9538 7.50931 14.678 7.59606 14.4537 7.48106L12.6364 6.55905C12.4841 6.48238 12.3895 6.32703 12.3895 6.15957V3.71229C12.3895 3.57712 12.4512 3.45001 12.5582 3.36326C12.6652 3.27852 12.8052 3.24422 12.941 3.27247L17.4049 4.17633L21.8833 3.82527L22.1199 2.84475C22.1776 2.60264 22.4245 2.45334 22.6715 2.50983C22.9185 2.56633 23.0708 2.80843 23.0131 3.05054L22.7127 4.2994V7.57387C22.7127 7.7958 22.548 7.98343 22.3257 8.01773L17.4482 8.76624C17.4255 8.77027 17.4008 8.77229 17.3782 8.77229ZM17.8371 5.04589V7.79782L21.7968 7.19054V4.73519L17.8371 5.04589Z" fill="#0062B2"/>
<path d="M13.5255 15.6965C4.03584 15.6965 0.273721 11.6352 0.115251 11.4576C0.041161 11.3749 0 11.27 0 11.1611V8.94579C0 8.8893 0.0102903 8.83483 0.0308708 8.78237L0.335462 8.01167C0.24285 7.3479 -0.17905 4.18237 0.137889 2.92948C0.17905 2.76606 0.308708 2.64097 0.473352 2.60062C0.588603 2.57237 3.32993 1.92676 7.20318 2.07404C7.85558 1.94088 11.5971 1.18027 12.3709 1.18027C12.6241 1.18027 12.8299 1.38202 12.8299 1.63018C12.8299 1.87834 12.6241 2.08009 12.3709 2.08009C11.8359 2.08009 9.06572 2.61071 7.33489 2.96579C7.29785 2.97386 7.2608 2.9779 7.2217 2.97588C4.15932 2.85483 1.77404 3.25632 0.975516 3.41369C0.82322 4.57983 1.11752 7.06948 1.25747 7.99957C1.26982 8.07623 1.25953 8.15492 1.23071 8.22755L0.913775 9.02851V10.9754C1.61145 11.6372 5.5588 14.9601 14.1532 14.7886C21.8318 14.6413 26.6415 13.2391 28.0759 10.7293L27.9977 6.42185C27.9936 6.17369 28.1953 5.9679 28.4484 5.96386C28.7098 5.95781 28.9115 6.15755 28.9156 6.40571L28.9959 10.8322C28.9959 10.9068 28.9794 10.9815 28.9444 11.0481C27.3927 13.9695 22.4225 15.529 14.1717 15.6884C13.9515 15.6925 13.7354 15.6945 13.5214 15.6945L13.5255 15.6965ZM17.9318 4.03711C13.8527 4.03711 13.6469 2.92544 13.6469 2.7015C13.6469 2.47755 13.8527 1.3679 17.9318 1.3679C22.0109 1.3679 22.2167 2.47957 22.2167 2.7015C22.2167 3.43992 21.0539 3.69614 20.6731 3.78088C20.4262 3.83334 20.1812 3.68202 20.1257 3.43992C20.0701 3.19781 20.2245 2.95772 20.4735 2.90325C20.8028 2.83062 21.0127 2.75799 21.1424 2.69948C20.7019 2.50781 19.5968 2.26571 17.9359 2.26571C16.2751 2.26571 15.1637 2.50983 14.7254 2.7015C15.1637 2.89316 16.271 3.13728 17.9359 3.13728C18.4751 3.13728 18.9958 3.11106 19.4856 3.0586C19.7367 3.03237 19.9631 3.20992 19.9919 3.45606C20.0187 3.7022 19.8376 3.92413 19.5865 3.95237C19.0658 4.00886 18.5101 4.03509 17.938 4.03509L17.9318 4.03711Z" fill="#0062B2"/>
<path d="M13.6716 13.6386C13.2847 13.6386 12.906 13.6326 12.5335 13.6204C12.2804 13.6124 12.0808 13.4046 12.089 13.1564C12.0972 12.9083 12.3113 12.7085 12.5623 12.7206C13.1201 12.7368 13.6984 12.7408 14.287 12.7327C19.146 12.652 22.8279 12.1456 25.2317 11.2236C25.4663 11.1328 25.7339 11.2478 25.8265 11.4798C25.9191 11.7118 25.8018 11.9721 25.5672 12.0629C23.0605 13.0233 19.2716 13.5518 14.3035 13.6326C14.0935 13.6366 13.8816 13.6366 13.6737 13.6366L13.6716 13.6386Z" fill="#0062B2"/>
<path d="M15.5156 10.1563C11.7741 10.1563 7.74238 9.6923 4.12639 8.57054C3.8856 8.49589 3.75182 8.2437 3.82797 8.00563C3.90412 7.76958 4.16137 7.63642 4.40422 7.71308C14.5195 10.8504 26.732 8.53624 27.9175 6.52879C28.0142 6.36537 28.0265 6.208 27.9586 6.01835C27.6026 5.0237 25.2482 3.80914 23.8466 3.27651C23.61 3.18572 23.4926 2.92545 23.5853 2.69545C23.6758 2.46344 23.9413 2.34844 24.178 2.43922C24.4229 2.53203 25.7977 3.0687 27.0016 3.84747V2.08212C24.7131 0.924049 20.1051 2.3101 20.0557 2.32624C19.8149 2.40089 19.5577 2.26773 19.4815 2.03168C19.4054 1.79563 19.5412 1.54344 19.782 1.46879C20.0001 1.40221 25.1473 -0.145249 27.7055 1.44458C27.8372 1.52729 27.9195 1.67054 27.9195 1.82387V4.43458C27.9195 4.46484 27.9154 4.4951 27.9113 4.52537C28.3373 4.89861 28.6728 5.30212 28.8251 5.7258C28.9815 6.15958 28.9424 6.59537 28.7119 6.98475C27.6664 8.75817 22.0294 10.1624 15.5177 10.1624L15.5156 10.1563ZM9.69753 2.45335C9.45674 2.45335 9.25505 2.26975 9.24065 2.03168L9.15627 0.730365C9.1398 0.486242 9.32708 0.272383 9.57817 0.254225L12.8381 1.42604e-05C12.9822 -0.012091 13.1242 0.0464178 13.2209 0.153348L13.9886 1.02089C15.9437 1.12984 16.7793 1.378 16.8143 1.3901C17.0571 1.46475 17.1909 1.71493 17.1168 1.953C17.0427 2.18905 16.7855 2.32221 16.5447 2.24958C16.5303 2.24554 15.6968 2.00545 13.7478 1.91063C13.6222 1.90458 13.507 1.84808 13.4247 1.7573L12.6817 0.917997L10.1009 1.11773L10.1565 1.97721C10.1729 2.22537 9.97949 2.43922 9.7284 2.45335C9.71811 2.45335 9.70782 2.45335 9.69959 2.45335H9.69753Z" fill="#0062B2"/>
</g>
<defs>
<clipPath id="clip0_1195_843">
<rect width="29" height="23" fill="white"/>
</clipPath>
</defs>
</svg>
