<svg width="20" height="30" viewBox="0 0 20 30" fill="none" xmlns="http://www.w3.org/2000/svg">
<g clip-path="url(#clip0_1195_886)">
<path d="M11.4563 29.8671H8.54374V28.7103L0.374994 22.7587H0.129974V4.76217H0.368602L5.82935 1.38768V0.132874H14.1707V1.3659L19.6335 4.76217H19.87V22.7587H19.4887L11.4563 28.6101V29.8649V29.8671ZM9.21701 29.2201H10.783V28.889H9.21701V29.2201ZM9.0146 28.2419H10.8469L18.3722 22.7587H1.49143L9.01673 28.2419H9.0146ZM0.803246 22.1117H19.1968V5.41136H0.803246V22.1117ZM12.8135 4.76217H18.3935L13.7722 1.88874H12.675L12.8156 1.97588V4.76435L12.8135 4.76217ZM7.92799 4.76217H12.1402V2.34186C11.8313 2.19155 11.0856 1.88874 10.1012 1.88874C9.11687 1.88874 8.28167 2.16105 7.92799 2.29829V4.76217ZM1.61288 4.76217H7.25472V1.88874H6.26612L1.61288 4.76217ZM6.50262 1.24173H13.4974V0.779885H6.50262V1.24173Z" fill="#0062B2"/>
<path d="M11.5862 30H8.41376V28.7779L0.334505 22.8916H0V4.62929H0.332375L5.69937 1.31363V0H14.3006V1.29185L19.6698 4.63147H20V22.8916H19.5313L11.5862 28.6798V30ZM8.6737 29.7342H11.3263V28.5426L19.4482 22.6258H19.7401V4.89507H19.5952L14.0407 1.43998V0.265776H5.9593V1.46395L0.404815 4.89507H0.259934V22.6258H0.417599L0.451688 22.6498L8.6737 28.6406V29.7342ZM10.913 29.353H9.08704V28.7561H10.913V29.353ZM9.34697 29.0872H10.653V29.0219H9.34697V29.0872ZM10.8895 28.3748H8.97411L1.08448 22.6258H18.7792L10.8895 28.3748ZM9.05721 28.1091H10.8064L17.9674 22.8916H1.89624L9.05721 28.1091ZM19.3267 22.2446H0.673272V5.27848H19.3267V22.2446ZM0.933205 21.9788H19.0668V5.54208H0.933205V21.9766V21.9788ZM18.8559 4.89507H12.6835V2.04996L12.2062 1.75586H13.8063L18.8559 4.89507ZM12.9434 4.62929H17.9291L13.7339 2.01946H12.9434V4.62929ZM12.2702 4.89507H7.79802V2.20681L7.88111 2.17413C8.28167 2.01728 9.10195 1.75586 10.1012 1.75586C11.1005 1.75586 11.8355 2.04778 12.1956 2.22206L12.2702 2.25909V4.89725V4.89507ZM8.05795 4.62929H12.0102V2.42684C11.6928 2.28306 10.9939 2.02164 10.1012 2.02164C9.20848 2.02164 8.41589 2.2591 8.05795 2.3898V4.62929ZM7.38468 4.89507H1.1484L6.22989 1.75586H7.38468V4.89507ZM2.07947 4.62929H7.12475V2.01946H6.30233L2.07947 4.62929ZM13.6274 1.37463H6.37264V0.647012H13.6274V1.37463ZM6.63258 1.10885H13.3674V0.912788H6.63258V1.10885Z" fill="#0062B2"/>
</g>
<defs>
<clipPath id="clip0_1195_886">
<rect width="20" height="30" fill="white"/>
</clipPath>
</defs>
</svg>
