<svg width="21" height="25" viewBox="0 0 21 25" fill="none" xmlns="http://www.w3.org/2000/svg">
<g clip-path="url(#clip0_1195_797)">
<path d="M20.2516 25H0.885246V22.0296H0V20.6201H0.885246V18.9716H0V17.5621H0.885246V15.8708H0V14.4614H0.885246V12.7274H0V11.318H0.885246V9.58401H0V8.1746H0.885246V6.57086H0V5.16144H0.885246V2.08209C0.885246 2.06287 0.885246 2.03938 0.885246 2.01375V1.77031H0.970777C0.99216 1.73614 1.01996 1.69984 1.05417 1.6614C1.65716 0.997267 3.83393 0.58512 7.40699 0.44845V0H13.2701V0.459127C18.2908 0.657726 19.7106 1.35176 20.1041 1.77671H20.2495V5.16785H20.9979V6.57726H20.2495V8.181H20.9979V9.59042H20.2495V11.3244H20.9979V12.7338H20.2495V14.4678H20.9979V15.8773H20.2495V17.5685H20.9979V18.978H20.2495V20.6265H20.9979V22.036H20.2495V25.0064L20.2516 25ZM1.55666 24.4085H19.5802V22.0296H1.55666V24.4085ZM20.2516 21.438H20.3286V21.2117H20.2516V21.438ZM1.55666 21.438H19.5802V21.2117H1.55666V21.438ZM0.671418 21.438H0.887384V21.2117H0.671418V21.438ZM1.55666 20.6201H19.5802V18.9716H1.55666V20.6201ZM20.2516 18.3822H20.3286V18.1558H20.2516V18.3822ZM1.55666 18.3822H19.5802V18.1558H1.55666V18.3822ZM0.671418 18.3822H0.887384V18.1558H0.671418V18.3822ZM1.55666 17.5643H19.5802V15.873H1.55666V17.5643ZM20.2516 15.2836H20.3286V15.0551H20.2516V15.2836ZM1.55666 15.2836H19.5802V15.0551H1.55666V15.2836ZM0.671418 15.2836H0.887384V15.0551H0.671418V15.2836ZM1.55666 14.4657H19.5802V12.7317H1.55666V14.4657ZM20.2516 12.1402H20.3286V11.9138H20.2516V12.1402ZM1.55666 12.1402H19.5802V11.9138H1.55666V12.1402ZM0.671418 12.1402H0.887384V11.9138H0.671418V12.1402ZM1.55666 11.3223H19.5802V9.58828H1.55666V11.3223ZM20.2516 8.99675H20.3286V8.77039H20.2516V8.99675ZM1.55666 8.99675H19.5802V8.77039H1.55666V8.99675ZM0.671418 8.99675H0.887384V8.77039H0.671418V8.99675ZM1.55666 8.17887H19.5802V6.57513H1.55666V8.17887ZM20.2516 5.9836H20.3286V5.75724H20.2516V5.9836ZM1.55666 5.9836H19.5802V5.75724H1.55666V5.9836ZM0.671418 5.9836H0.887384V5.75724H0.671418V5.9836ZM1.55666 5.16571H19.5802V2.36611H1.55666V5.16571ZM17.4633 1.77458H18.8297C18.4041 1.6315 17.7541 1.47348 16.7662 1.33681C16.9651 1.45426 17.1939 1.59947 17.4633 1.77458ZM12.9857 1.77458H15.665C15.3314 1.41796 15.2651 1.27274 15.2716 1.17238C14.6857 1.12326 14.0228 1.08055 13.2701 1.04852V1.62296L12.9857 1.77458ZM9.47042 1.77458H11.3136V0.999402C10.7256 0.99086 10.0691 0.99086 9.47042 0.997267V1.77458ZM5.54882 1.77458H7.72131L7.40912 1.60588V1.04211C6.86814 1.06347 6.37847 1.08909 5.93158 1.11899C5.96793 1.22576 5.94441 1.34962 5.54882 1.77244V1.77458ZM2.0057 1.77458H3.75054C4.10335 1.54395 4.38988 1.3667 4.62295 1.2343C3.18603 1.39233 2.41625 1.60161 2.00356 1.77458H2.0057ZM8.0784 1.27488L8.799 1.66353V1.00367C8.55096 1.00794 8.30934 1.01221 8.0784 1.01862V1.27274V1.27488ZM11.9829 1.01008V1.61442L12.6009 1.28983V1.02716C12.402 1.02076 12.1946 1.01649 11.9829 1.01221V1.01008Z" fill="#0062B2"/>
</g>
<defs>
<clipPath id="clip0_1195_797">
<rect width="21" height="25" fill="white"/>
</clipPath>
</defs>
</svg>
