<svg width="37" height="20" viewBox="0 0 37 20" fill="none" xmlns="http://www.w3.org/2000/svg">
<g clip-path="url(#clip0_1195_889)">
<path d="M9.26136 20C9.14884 20 8.77016 19.9733 8.45856 19.6729C8.27031 19.4926 8.04743 19.1543 8.04743 18.5557V3.01992C7.989 2.82853 7.92192 2.45466 8.13615 2.10971C8.34604 1.77145 8.73554 1.60009 9.29382 1.60009C10.4147 1.60009 14.3984 1.70691 14.5672 1.71136L14.6948 1.73139C14.7143 1.73807 16.638 2.31891 18.4729 2.31891C20.3079 2.31891 22.0888 1.84266 22.1061 1.83821L22.2316 1.82041H27.6045C27.7754 1.78703 28.1866 1.75142 28.5263 2.0207C28.7189 2.17425 28.9482 2.47469 28.9482 3.04217V18.5668C28.972 18.7337 28.9893 19.1187 28.7275 19.4659C28.4592 19.8197 28.007 19.9978 27.3859 19.9978H9.29382C9.29382 19.9978 9.28083 19.9978 9.26136 19.9978V20ZM8.95409 2.66607C8.96707 2.66607 8.98222 2.71948 8.98222 2.72171L9.02766 2.82185V18.5557C9.02766 18.736 9.06012 18.8695 9.12287 18.9318C9.18129 18.9919 9.27218 18.9919 9.27434 18.9919H27.3859C27.7192 18.9919 27.8988 18.9184 27.9529 18.8517C27.994 18.8005 27.981 18.7204 27.981 18.7204L27.9702 18.6136V3.04217C27.9702 2.89084 27.9399 2.82853 27.9312 2.81963C27.9139 2.80405 27.8317 2.7996 27.7733 2.81295L27.6542 2.82853H22.2943C21.946 2.91755 20.269 3.32703 18.4751 3.32703C16.6813 3.32703 14.8485 2.82408 14.4806 2.71726C13.957 2.70391 10.3281 2.60821 9.29382 2.60821C9.02982 2.60821 8.95192 2.66607 8.94976 2.66607C8.94976 2.66607 8.94976 2.66607 8.95192 2.66607H8.95409Z" fill="#0062B2"/>
<path d="M33.9316 19.6973H31.8392V18.6892H33.9316C34.0874 18.6892 34.1653 18.6603 34.1935 18.6425V17.4808H35.1737V18.6959C35.1737 19.0987 34.8426 19.6973 33.9316 19.6973Z" fill="#0062B2"/>
<path d="M4.73671 19.6973H3.1203C2.20931 19.6973 1.87823 19.0987 1.87823 18.6959V17.7568H2.85847V18.6425C2.8866 18.6603 2.9645 18.6892 3.1203 18.6892H4.73671V19.6973Z" fill="#0062B2"/>
<path d="M32.233 19.5794L32.0902 18.5824C32.2482 18.5557 36.022 17.8413 36.022 10.6331C36.022 3.42495 32.259 2.81963 32.0989 2.79515L32.2222 1.79593C32.417 1.82041 37.0022 2.49694 37.0022 10.6331C37.0022 18.7693 32.4299 19.5482 32.2352 19.5794H32.233Z" fill="#0062B2"/>
<path d="M4.767 19.5794C4.57226 19.5505 0 18.7604 0 10.6331C0 2.50584 4.58308 1.82263 4.77782 1.79815L4.89684 2.79737C4.74104 2.81962 0.978069 3.4383 0.978069 10.6354C0.978069 17.8324 4.75186 18.5579 4.91198 18.5846L4.76484 19.5816L4.767 19.5794Z" fill="#0062B2"/>
<path d="M32.4732 14.9238L32.1724 13.9646L33.1743 13.6353V11.4343L32.1075 11.056L32.4299 10.1035L34.1545 10.7177V14.3696L32.4732 14.9238Z" fill="#0062B2"/>
<path d="M4.4208 14.9238L2.7373 14.3696V10.7177L4.46407 10.1035L4.78433 11.056L3.71754 11.4343V13.6353L4.71941 13.9646L4.4208 14.9238Z" fill="#0062B2"/>
<path d="M30.8784 19.4125H29.9003V11.2496H29.1019V10.2415H30.8784V19.4125Z" fill="#0062B2"/>
<path d="M7.15376 19.4125H6.17352V10.2415H7.95222V11.2496H7.15376V19.4125Z" fill="#0062B2"/>
<path d="M31.4626 19.8598H29.9609C29.1884 19.8598 28.5587 19.2122 28.5587 18.4177V3.0177C28.5587 2.22099 29.1884 1.57339 29.9609 1.57339H31.4626C32.2373 1.57339 32.867 2.22099 32.867 3.0177V18.4199C32.867 19.2144 32.2373 19.862 31.4626 19.862V19.8598ZM29.9609 2.57928C29.7272 2.57928 29.5389 2.77512 29.5389 3.01547V18.4177C29.5389 18.6558 29.7294 18.8517 29.9609 18.8517H31.4626C31.6963 18.8517 31.8867 18.6558 31.8867 18.4177V3.0177C31.8867 2.77735 31.6963 2.58151 31.4626 2.58151H29.9609V2.57928Z" fill="#0062B2"/>
<path d="M7.03904 19.8598H5.53732C4.76482 19.8598 4.13513 19.2122 4.13513 18.4177V3.0177C4.13513 2.22099 4.76482 1.57339 5.53732 1.57339H7.03904C7.81154 1.57339 8.44123 2.22099 8.44123 3.0177V18.4199C8.44123 19.2144 7.81154 19.862 7.03904 19.862V19.8598ZM5.53732 2.58151C5.30362 2.58151 5.1132 2.77735 5.1132 3.0177V18.4199C5.1132 18.6581 5.30362 18.8539 5.53732 18.8539H7.03904C7.27274 18.8539 7.461 18.6581 7.461 18.4199V3.0177C7.461 2.77735 7.27058 2.58151 7.03904 2.58151H5.53732Z" fill="#0062B2"/>
<path d="M22.0434 1.00812H14.9567V0.945811H14.4677V0H22.5324V1.00145L22.0434 1.00812Z" fill="#0062B2"/>
<path d="M20.494 0.945816H19.5138V2.65718H20.494V0.945816Z" fill="#0062B2"/>
<path d="M17.4862 0.945816H16.506V2.65718H17.4862V0.945816Z" fill="#0062B2"/>
<path d="M22.8548 2.32558H21.8745V1.56003H15.1254V2.26995H14.1452V0.55191H22.8548V2.32558Z" fill="#0062B2"/>
<path d="M10.4515 19.497H9.47122V11.3319H8.55591V10.3238H10.4515V19.497Z" fill="#0062B2"/>
<path d="M27.5526 19.497H26.5723V10.3238H28.351V11.3319H27.5526V19.497Z" fill="#0062B2"/>
</g>
<defs>
<clipPath id="clip0_1195_889">
<rect width="37" height="20" fill="white"/>
</clipPath>
</defs>
</svg>
