<svg width="28" height="28" viewBox="0 0 28 28" fill="none" xmlns="http://www.w3.org/2000/svg">
<g clip-path="url(#clip0_1195_908)">
<path d="M26.909 27.9525H26.9043C26.8878 27.9525 26.8736 27.9525 26.8617 27.9525H1.56895C0.913443 27.9525 0.608169 27.6102 0.485113 27.4058C0.32656 27.1444 0.291063 26.8568 0.291063 26.6619C0.291063 26.6263 0.291063 26.6001 0.29343 26.5787V24.2163C0.274498 24.2139 0.257933 24.2092 0.241368 24.202L0.203504 24.1854C0.149075 24.164 0.106479 24.1188 0.0828145 24.0642L0.0662492 24.0261C0.0544169 23.9976 0.049684 23.9691 0.049684 23.9406V22.631C0.049684 22.6025 0.0544169 22.5716 0.0662492 22.5455L0.0828145 22.5051C0.106479 22.4504 0.149075 22.4052 0.203504 22.3838L0.241368 22.3672C0.267399 22.3577 0.29343 22.3506 0.319461 22.3506V19.634C0.29343 19.634 0.265032 19.6269 0.239001 19.6173L0.201138 19.6007C0.146709 19.5769 0.104113 19.5342 0.080448 19.4795L0.0638828 19.4415C0.0520504 19.4153 0.0473175 19.3844 0.0473175 19.3559V18.0725C0.0473175 18.044 0.0520504 18.0131 0.0638828 17.9869L0.080448 17.9465C0.104113 17.8919 0.146709 17.8467 0.201138 17.8253L0.239001 17.8087C0.265032 17.7968 0.29343 17.792 0.324194 17.792H0.345492V15.0469H0.324194C0.295796 15.0469 0.265032 15.0422 0.239001 15.0303L0.201138 15.0137C0.146709 14.9899 0.104113 14.9471 0.080448 14.8925L0.0638828 14.852C0.0520504 14.8259 0.0473175 14.795 0.0473175 14.7665V13.5116C0.0473175 13.4831 0.0520504 13.4522 0.0638828 13.426L0.080448 13.388C0.104113 13.3333 0.146709 13.2906 0.201138 13.2668L0.239001 13.2501C0.265032 13.2383 0.29343 13.2335 0.324194 13.2335H0.345492V10.5431H0.324194C0.295796 10.5431 0.265032 10.5383 0.239001 10.5264L0.201138 10.5098C0.146709 10.486 0.104113 10.4433 0.080448 10.3886L0.0638828 10.3506C0.0520504 10.3244 0.0473175 10.2935 0.0473175 10.265V9.01961C0.0473175 8.99109 0.0520504 8.96019 0.0638828 8.93404L0.080448 8.89602C0.104113 8.84135 0.146709 8.79857 0.201138 8.7748L0.239001 8.75817C0.265032 8.74866 0.291063 8.74153 0.319461 8.74153V5.571C0.319461 5.07902 0.530076 4.6631 0.91581 4.39928C1.04123 4.31372 1.16665 4.2543 1.27078 4.21628V1.52822C1.27078 1.3262 1.382 1.15032 1.58315 1.03387C1.70384 0.962564 1.85766 0.910276 2.05171 0.872249C2.17004 0.848482 2.28599 0.834222 2.38538 0.827091V0.710633C2.38538 0.579914 2.47294 0.468208 2.60073 0.439688L4.28802 0.0546613C4.32115 0.0475311 4.35428 0.0475311 4.38741 0.0546613L4.43474 0.0641681C4.501 0.0784283 4.55543 0.123586 4.58619 0.18538L4.60749 0.228161C4.62169 0.259058 4.62879 0.292332 4.62879 0.325606V0.427804H5.48545V0.325606C5.48545 0.297085 5.49018 0.266188 5.50202 0.240045L5.51858 0.202017C5.54225 0.147353 5.58484 0.104572 5.63927 0.080805L5.67713 0.0641681C5.70317 0.0522845 5.73393 0.0475311 5.76233 0.0475311H6.16936C6.19776 0.0475311 6.22852 0.0522845 6.25455 0.0641681L6.29478 0.080805C6.34921 0.104572 6.39417 0.147353 6.41547 0.202017L6.43204 0.240045C6.44387 0.266188 6.4486 0.294709 6.4486 0.325606V0.427804H7.30526V0.325606C7.30526 0.292332 7.31236 0.259058 7.32656 0.230538L7.34786 0.187757C7.37626 0.125963 7.43068 0.080805 7.49695 0.0665448L7.54427 0.0546613C7.5774 0.0475311 7.61054 0.0475311 7.64367 0.0546613L9.1653 0.382647C9.29309 0.408791 9.38538 0.52525 9.38538 0.655968V0.848482C9.75219 0.872249 10.0362 0.945927 10.2302 1.06476C10.2823 1.09566 10.3272 1.13131 10.3627 1.16696C10.8076 1.06001 12.0169 0.838975 14.3786 0.838975C17.1994 0.838975 19.3032 1.45454 19.6913 1.57575C20.2664 1.56387 25.2644 1.4593 26.3719 1.4593H26.3766C26.9469 1.4593 27.2427 1.69221 27.3894 1.88948C27.5338 2.08199 27.6095 2.33155 27.6095 2.61438C27.6095 2.7142 27.6001 2.80214 27.5906 2.8568V8.73915H27.6734C27.7018 8.73915 27.7326 8.74391 27.7586 8.75579L27.7988 8.77243C27.8533 8.79619 27.8959 8.83897 27.9195 8.89364L27.9361 8.93167C27.9479 8.95781 27.9527 8.98871 27.9527 9.01723V10.2365C27.9527 10.265 27.9479 10.2959 27.9361 10.322L27.9195 10.3624C27.8959 10.4171 27.8533 10.4623 27.7988 10.4837L27.7586 10.5003C27.7326 10.5122 27.7042 10.5169 27.6734 10.5169H27.645V13.2335H27.6734C27.7018 13.2335 27.7302 13.2383 27.7586 13.2501L27.7988 13.2668C27.8533 13.2882 27.8982 13.3333 27.9195 13.388L27.9361 13.426C27.9479 13.4522 27.9527 13.4831 27.9527 13.5116V14.7665C27.9527 14.795 27.9479 14.8259 27.9361 14.852L27.9195 14.8901C27.8959 14.9447 27.8533 14.9875 27.7988 15.0113L27.7586 15.0279C27.7326 15.0398 27.7018 15.0446 27.6734 15.0446H27.645V17.7897H27.6734C27.7018 17.7897 27.7302 17.7944 27.7586 17.8063L27.7988 17.8229C27.8533 17.8443 27.8982 17.8895 27.9195 17.9441L27.9361 17.9846C27.9479 18.0107 27.9527 18.0416 27.9527 18.0701V19.3345C27.9527 19.363 27.9479 19.3939 27.9361 19.4201L27.9195 19.4581C27.8959 19.5128 27.8533 19.5556 27.7988 19.5793L27.7586 19.596C27.7326 19.6078 27.7018 19.6126 27.6734 19.6126H27.645V22.3482H27.6734C27.7018 22.3482 27.7302 22.3529 27.7586 22.3648L27.7988 22.3815C27.8533 22.4029 27.8982 22.448 27.9195 22.5027L27.9361 22.5431C27.9479 22.5692 27.9527 22.6001 27.9527 22.6286V23.9121C27.9527 23.9406 27.9479 23.9715 27.9361 23.9976L27.9195 24.038C27.8959 24.0927 27.8533 24.1378 27.7988 24.1592L27.7586 24.1759C27.7586 24.1759 27.742 24.183 27.7349 24.183V26.6999C27.7349 27.1634 27.6308 27.508 27.4273 27.7219C27.2309 27.9287 27.0013 27.9525 26.909 27.9525ZM26.8783 27.3916C26.8783 27.3916 26.9043 27.3916 26.9114 27.3916C26.9303 27.3916 26.9777 27.3821 27.025 27.3321C27.0818 27.2727 27.1788 27.1087 27.1788 26.6952V23.9073C27.1788 23.8788 27.1836 23.8503 27.1954 23.8217L27.212 23.7813C27.2333 23.7267 27.2782 23.6815 27.3326 23.6578L27.3705 23.6411C27.3705 23.6411 27.3871 23.634 27.3942 23.634V22.902H27.3634C27.335 22.902 27.3042 22.8972 27.2782 22.8853L27.2404 22.8687C27.1859 22.8449 27.1433 22.8021 27.1197 22.7475L27.1031 22.7094C27.0913 22.6833 27.0865 22.6524 27.0865 22.6239V19.3298C27.0865 19.3012 27.0913 19.2703 27.1031 19.2442L27.1197 19.2038C27.1433 19.1491 27.1859 19.104 27.2404 19.0826L27.2782 19.066C27.3042 19.0541 27.3326 19.0493 27.3634 19.0493H27.3942V18.3434H27.3634C27.335 18.3434 27.3042 18.3387 27.2782 18.3268L27.2404 18.3102C27.1859 18.2864 27.1433 18.2436 27.1197 18.1889L27.1031 18.1485C27.0913 18.1224 27.0865 18.0915 27.0865 18.063V14.7594C27.0865 14.7308 27.0913 14.6999 27.1031 14.6738L27.1197 14.6358C27.1433 14.5811 27.1859 14.5383 27.2404 14.5146L27.2782 14.4979C27.3042 14.486 27.335 14.4813 27.3634 14.4813H27.3942V13.7849H27.3634C27.335 13.7849 27.3066 13.7802 27.2782 13.7683L27.2404 13.7516C27.1859 13.7302 27.141 13.6851 27.1197 13.6304L27.1031 13.59C27.0913 13.5639 27.0865 13.533 27.0865 13.5045V10.2294C27.0865 10.2008 27.0913 10.1699 27.1031 10.1438L27.1197 10.1058C27.1433 10.0511 27.1859 10.0083 27.2404 9.98455L27.2782 9.96791C27.3042 9.95603 27.3326 9.95127 27.3634 9.95127H27.3942V9.29055H27.309C27.2806 9.29055 27.2498 9.2858 27.2238 9.27391L27.1836 9.25728C27.1291 9.23351 27.0842 9.19073 27.0629 9.13606L27.0463 9.09566C27.0345 9.06952 27.0297 9.041 27.0297 9.0101V2.83066C27.0297 2.83066 27.0297 2.80451 27.0321 2.79501L27.0416 2.72846C27.0439 2.70469 27.0487 2.66191 27.0487 2.612C27.0487 2.52168 27.0345 2.34818 26.9398 2.2246C26.8333 2.08437 26.6464 2.01782 26.3648 2.01545C25.4134 2.01545 21.6602 2.0915 20.5338 2.11527L19.6535 2.13428C19.6535 2.13428 19.644 2.13428 19.6369 2.13428C19.6251 2.13428 19.6132 2.13428 19.6014 2.12953C19.5872 2.12715 19.5635 2.1224 19.5541 2.12002C19.5541 2.12002 19.521 2.10814 19.4594 2.0915C19.3932 2.07249 19.2985 2.04397 19.1731 2.01069C18.9435 1.9489 18.572 1.85621 18.0916 1.76114C17.2468 1.59477 15.9168 1.3975 14.3668 1.3975C11.7116 1.3975 10.5662 1.68271 10.3627 1.73975L10.3225 1.75163C10.2917 1.76114 10.261 1.76589 10.2278 1.76114L10.1805 1.75638C10.1143 1.74925 10.0551 1.7136 10.0196 1.65656L10.003 1.63042C9.99356 1.61616 9.9841 1.6019 9.977 1.58288C9.977 1.58288 9.977 1.57813 9.97463 1.57813L9.9699 1.56862C9.9699 1.56862 9.95807 1.55912 9.9273 1.5401C9.85868 1.49732 9.6386 1.3975 9.09431 1.3975C9.06591 1.3975 9.03751 1.39275 9.00912 1.38086L8.96889 1.36423C8.91446 1.34284 8.86949 1.29768 8.8482 1.24302L8.83163 1.20499C8.8198 1.17884 8.81507 1.14795 8.81507 1.11943V0.881756L7.84955 0.674982V0.713009C7.84955 0.74153 7.84482 0.77005 7.83298 0.798571L7.81642 0.838975C7.79512 0.893639 7.75016 0.938797 7.69573 0.960187L7.6555 0.976824C7.62947 0.988708 7.5987 0.993461 7.57031 0.993461H6.15753C6.12913 0.993461 6.09837 0.988708 6.07233 0.976824L6.0321 0.960187C6.00134 0.948304 5.97531 0.92929 5.95164 0.903146C5.93035 0.926913 5.90195 0.945927 5.87118 0.960187L5.83332 0.976824C5.80729 0.988708 5.77653 0.993461 5.74813 0.993461H4.33535C4.30695 0.993461 4.27619 0.988708 4.25016 0.976824L4.20993 0.960187C4.1555 0.93642 4.1129 0.893639 4.08924 0.838975L4.07267 0.798571C4.06084 0.772427 4.05611 0.74153 4.05611 0.713009V0.679736L2.9273 0.93642V1.09566C2.9273 1.12418 2.92257 1.15508 2.91074 1.18122L2.89417 1.22163C2.87051 1.27629 2.82791 1.31907 2.77348 1.34284L2.73325 1.35947C2.70722 1.37136 2.67646 1.37611 2.64806 1.37611C2.64569 1.37611 2.61256 1.37611 2.55577 1.37849C2.49897 1.38086 2.41615 1.38562 2.32622 1.3975C2.11561 1.42127 1.93812 1.4688 1.8482 1.52109C1.8127 1.54248 1.8056 1.55436 1.8056 1.55436L1.8127 4.4278C1.8127 4.56565 1.71567 4.67974 1.58079 4.7035L1.55712 4.70826C1.53819 4.71301 1.50979 4.72014 1.47666 4.73202C1.41277 4.75341 1.31338 4.79382 1.21635 4.86274C0.977338 5.02673 0.861381 5.26203 0.861381 5.57338V9.02198C0.861381 9.0505 0.856648 9.07902 0.844816 9.10754L0.828251 9.14795C0.806952 9.20261 0.76199 9.24777 0.707561 9.26916L0.669697 9.2858C0.643666 9.2953 0.617635 9.30243 0.589238 9.30243V9.9893H0.610536C0.638933 9.9893 0.669698 9.99405 0.695729 10.0059L0.733592 10.0226C0.788021 10.0463 0.830617 10.0891 0.854282 10.1438L0.870847 10.1842C0.882679 10.2103 0.887412 10.2412 0.887412 10.2698V13.5163C0.887412 13.5449 0.882679 13.5758 0.870847 13.6019L0.854282 13.6423C0.830617 13.697 0.788021 13.7421 0.733592 13.7635L0.695729 13.7802C0.669698 13.792 0.6413 13.7968 0.610536 13.7968H0.589238V14.4932H0.610536C0.638933 14.4932 0.669698 14.4979 0.695729 14.5098L0.733592 14.5264C0.788021 14.5478 0.830617 14.593 0.854282 14.6477L0.870847 14.6857C0.882679 14.7142 0.887412 14.7427 0.887412 14.7712V18.0749C0.887412 18.1034 0.882679 18.1343 0.870847 18.1604L0.854282 18.2008C0.830617 18.2555 0.788021 18.2983 0.733592 18.322L0.695729 18.3387C0.669698 18.3506 0.638933 18.3553 0.610536 18.3553H0.589238V19.0802C0.615269 19.0802 0.643666 19.0873 0.667331 19.0968L0.705194 19.1135C0.759623 19.1373 0.804586 19.18 0.825884 19.2347L0.842449 19.2727C0.854282 19.2989 0.859015 19.3274 0.859015 19.3583V22.6334C0.859015 22.6619 0.854282 22.6904 0.842449 22.719L0.825884 22.757C0.804586 22.8116 0.759623 22.8544 0.705194 22.8782L0.667331 22.8948C0.6413 22.9043 0.615269 22.9115 0.586871 22.9115V23.6649C0.603437 23.6673 0.622368 23.672 0.638933 23.6791L0.679163 23.6958C0.733592 23.7195 0.776188 23.7623 0.799853 23.817L0.816418 23.8574C0.828251 23.8835 0.832983 23.9144 0.832983 23.943V26.5859C0.832983 26.5859 0.832983 26.6049 0.832983 26.612V26.6643C0.832983 26.7285 0.837716 26.9447 0.944207 27.1182C1.01757 27.2371 1.16192 27.3963 1.56185 27.3987H26.8641L26.8783 27.3916Z" fill="#0062B2"/>
<path d="M26.9088 27.9999H26.9041C26.8876 27.9999 26.8734 27.9999 26.8615 27.9999H1.57585C0.887213 27.9999 0.572473 27.6434 0.442318 27.4295C0.276665 27.1585 0.241168 26.8614 0.241168 26.6594C0.241168 26.6238 0.241168 26.5953 0.243535 26.5739V24.2542C0.243535 24.2542 0.229336 24.2494 0.222237 24.2471L0.182007 24.2304C0.115746 24.2019 0.0636836 24.152 0.035286 24.0855L0.0187208 24.045C0.00452201 24.0118 -0.00257738 23.9761 -0.00257738 23.9405V22.6309C-0.00257738 22.5953 0.00452201 22.5596 0.0187208 22.5263L0.035286 22.4859C0.0613171 22.4194 0.115746 22.3647 0.182007 22.3386L0.222237 22.3219C0.238802 22.3148 0.255367 22.3101 0.269566 22.3077V19.6767C0.253001 19.6719 0.236435 19.6672 0.21987 19.66L0.182007 19.6434C0.115746 19.6149 0.0636836 19.5626 0.035286 19.496L0.0187208 19.458C0.00452201 19.4247 -0.00257738 19.3891 -0.00257738 19.3534V18.07C-0.00257738 18.0344 0.00452201 17.9987 0.0187208 17.9654L0.035286 17.9274C0.0613171 17.8609 0.115746 17.8062 0.182007 17.78L0.222237 17.7634C0.245901 17.7539 0.271932 17.7468 0.297964 17.7444V15.0944C0.271932 15.092 0.245901 15.0849 0.222237 15.0754L0.182007 15.0587C0.115746 15.0302 0.0636836 14.9779 0.035286 14.9114L0.0187208 14.871C0.00452201 14.8401 -0.00257738 14.802 -0.00257738 14.7664V13.5115C-0.00257738 13.4758 0.00452201 13.4402 0.0187208 13.4069L0.035286 13.3665C0.0636836 13.2999 0.115746 13.2477 0.182007 13.2191L0.21987 13.2025C0.243535 13.193 0.269566 13.1859 0.295597 13.1835V10.5881C0.269566 10.5857 0.243535 10.5786 0.21987 10.5691L0.17964 10.5525C0.113379 10.524 0.0613171 10.4717 0.0329196 10.4051L0.0163543 10.3671C0.00215555 10.3338 -0.00494385 10.2982 -0.00494385 10.2625V9.01712C-0.00494385 8.98147 0.00215555 8.94582 0.0163543 8.91255L0.0329196 8.87214C0.0613171 8.80559 0.111013 8.75331 0.177274 8.72479L0.217504 8.70815C0.234069 8.70102 0.250634 8.69627 0.267199 8.69389V5.56614C0.267199 5.05753 0.484914 4.62734 0.884847 4.35402C0.986605 4.28509 1.09783 4.22568 1.21852 4.17814V1.52811C1.21852 1.30946 1.33921 1.11694 1.55456 0.990977C1.67761 0.917299 1.83617 0.862635 2.03731 0.822231C2.12961 0.805594 2.22663 0.791333 2.33076 0.77945V0.705772C2.33076 0.553663 2.43488 0.420567 2.58397 0.387293L4.27599 0.00701965C4.31622 -0.00248718 4.35645 -0.00248718 4.39668 0.00701965L4.44401 0.0165265C4.52447 0.0355402 4.5931 0.0878277 4.62859 0.163882L4.64989 0.206663C4.66646 0.242314 4.67592 0.282718 4.67592 0.325499V0.380163H5.43792V0.325499C5.43792 0.289848 5.44502 0.254197 5.45922 0.220923L5.47579 0.182896C5.50182 0.116348 5.55625 0.0640607 5.62251 0.0355402L5.66274 0.0189032C5.69587 0.00464294 5.729 -0.00248718 5.76686 -0.00248718H6.17389C6.20939 -0.00248718 6.24489 0.00464294 6.27802 0.0189032L6.31825 0.0355402C6.38451 0.0640607 6.43894 0.116348 6.46497 0.182896L6.48153 0.2233C6.49573 0.256574 6.50283 0.292225 6.50283 0.325499V0.380163H7.26483V0.325499C7.26483 0.285095 7.2743 0.24469 7.29086 0.20904L7.31216 0.166259C7.34766 0.0902044 7.41392 0.0379169 7.49201 0.0189032L7.53934 0.00701965C7.57957 -0.00248718 7.6198 -0.00248718 7.66003 0.00701965L9.18167 0.335005C9.33076 0.365903 9.43961 0.501375 9.43961 0.655861V0.803217C9.79222 0.829361 10.0691 0.905415 10.2631 1.02425C10.3057 1.05039 10.3483 1.08129 10.3862 1.11457C10.8216 1.01237 12.0404 0.791333 14.3879 0.791333C17.1921 0.791333 19.2936 1.39977 19.7077 1.52811H19.7219C21.0282 1.49959 25.3635 1.41165 26.3811 1.41165C26.9775 1.41165 27.2851 1.65646 27.4389 1.86085C27.5904 2.0605 27.6685 2.32193 27.6709 2.61427C27.6709 2.72597 27.659 2.81867 27.6519 2.86382V8.69151H27.6874C27.7229 8.69151 27.7584 8.69864 27.7915 8.7129L27.8318 8.72954C27.898 8.75806 27.9501 8.81035 27.9785 8.87689L27.9951 8.91492C28.0093 8.9482 28.0164 8.98385 28.0164 9.0195V10.2387C28.0164 10.2744 28.0093 10.3101 27.9951 10.3433L27.9785 10.3814C27.9501 10.4479 27.898 10.5026 27.8294 10.5287L27.7915 10.5453C27.7655 10.5572 27.7371 10.562 27.7087 10.5644V13.1859C27.7371 13.1859 27.7655 13.193 27.7915 13.2049L27.8318 13.2215C27.898 13.2477 27.9525 13.3023 27.9785 13.3689L27.9951 13.4069C28.0093 13.4402 28.0164 13.4758 28.0164 13.5115V14.7664C28.0164 14.802 28.0093 14.8377 27.9951 14.871L27.9785 14.9114C27.9501 14.9779 27.898 15.0302 27.8318 15.0587L27.7915 15.0754C27.7655 15.0872 27.7371 15.0944 27.7063 15.0944V17.7444C27.7347 17.7444 27.7631 17.7515 27.7892 17.7634L27.8294 17.78C27.898 17.8086 27.9501 17.8609 27.9785 17.9274L27.9951 17.9678C28.0093 18.0011 28.0164 18.0344 28.0164 18.0724V19.3368C28.0164 19.3724 28.0093 19.4081 27.9951 19.4414L27.9785 19.4818C27.9501 19.5483 27.898 19.6006 27.8318 19.6291L27.7915 19.6458C27.7655 19.6576 27.7371 19.6648 27.7063 19.6648V22.3053C27.7347 22.3053 27.7631 22.3148 27.7892 22.3243L27.8294 22.3409C27.8957 22.3695 27.9501 22.4218 27.9785 22.4883L27.9951 22.5287C28.0093 22.562 28.0164 22.5976 28.0164 22.6333V23.9167C28.0164 23.9524 28.0093 23.988 27.9951 24.0213L27.9785 24.0617C27.9501 24.1282 27.898 24.1829 27.8294 24.209L27.7963 24.2233V26.707C27.7963 27.1823 27.6874 27.5388 27.4744 27.7622C27.2638 27.9856 27.0177 28.0094 26.9207 28.0094L26.9088 27.9999ZM0.326361 17.8371C0.302696 17.8371 0.281398 17.8418 0.2601 17.8513L0.222237 17.868C0.17964 17.8846 0.144143 17.9203 0.127578 17.9631L0.111013 18.0035C0.101547 18.0248 0.0968141 18.0462 0.0968141 18.07V19.3534C0.0968141 19.3772 0.101547 19.401 0.111013 19.42L0.127578 19.458C0.14651 19.5008 0.17964 19.5341 0.222237 19.5531L0.262467 19.5697C0.281398 19.5768 0.302696 19.5816 0.323995 19.584H0.371324V22.3956H0.323995C0.302696 22.3956 0.281398 22.4027 0.262467 22.4099L0.224603 22.4265C0.182007 22.4431 0.14651 22.4788 0.129945 22.5216L0.113379 22.562C0.103913 22.5834 0.0991806 22.6048 0.0991806 22.6285V23.9381C0.0991806 23.9619 0.103913 23.9833 0.113379 24.007L0.129945 24.045C0.148876 24.0878 0.182007 24.1211 0.224603 24.1401L0.264833 24.1568C0.279032 24.1615 0.290864 24.1663 0.305063 24.1686L0.345293 24.1758V26.5786C0.345293 26.6024 0.342926 26.6285 0.342926 26.6618C0.342926 26.8496 0.376057 27.1276 0.529877 27.3819C0.6482 27.5768 0.939275 27.9072 1.57349 27.9072H26.8686C26.8828 27.9072 26.897 27.9072 26.9112 27.9072H26.9159C26.9988 27.9072 27.2141 27.8858 27.3987 27.6909C27.5951 27.4841 27.6945 27.1514 27.6945 26.7022V24.1472L27.7324 24.1377C27.7324 24.1377 27.7418 24.1354 27.7466 24.133L27.7868 24.1164C27.8318 24.0973 27.8649 24.0641 27.8838 24.0213L27.9004 23.9809C27.9099 23.9595 27.9146 23.9381 27.9146 23.9143V22.6309C27.9146 22.6071 27.9099 22.5858 27.9004 22.5644L27.8838 22.524C27.8649 22.4812 27.8318 22.4455 27.7892 22.4289L27.7489 22.4123C27.7276 22.4027 27.704 22.398 27.6827 22.398H27.6046V19.565H27.6827C27.7063 19.565 27.7276 19.5602 27.7489 19.5507L27.7892 19.5341C27.8318 19.515 27.8649 19.4818 27.8838 19.439L27.9004 19.3986C27.9099 19.3772 27.9146 19.3558 27.9146 19.332V18.0676C27.9146 18.0439 27.9099 18.0225 27.9004 18.0011L27.8838 17.9607C27.8649 17.9179 27.8318 17.8822 27.7892 17.8656L27.7489 17.849C27.7276 17.8395 27.7063 17.8347 27.6827 17.8347H27.6046V14.9945H27.6827C27.7063 14.9945 27.7276 14.9898 27.7489 14.9803L27.7892 14.9636C27.8318 14.9446 27.8649 14.9114 27.8838 14.8686L27.9004 14.8282C27.9099 14.8068 27.9146 14.7854 27.9146 14.7616V13.5067C27.9146 13.483 27.9099 13.4592 27.9004 13.4402L27.8838 13.4021C27.8649 13.3594 27.8318 13.3237 27.7892 13.3071L27.7489 13.2904C27.7276 13.2833 27.7063 13.2786 27.6827 13.2786H27.6046V10.4645H27.6827C27.7063 10.4645 27.7276 10.4598 27.7489 10.4503L27.7868 10.4336C27.8318 10.4146 27.8649 10.3814 27.8838 10.3386L27.9004 10.2982C27.9099 10.2768 27.9146 10.2554 27.9146 10.2316V9.01237C27.9146 8.9886 27.9099 8.96483 27.9004 8.94582L27.8838 8.90779C27.8649 8.86501 27.8318 8.83174 27.7892 8.81272L27.7489 8.79609C27.7276 8.78658 27.7063 8.78183 27.6827 8.78183H27.5502V2.85432C27.5573 2.80441 27.5691 2.71884 27.5691 2.61189C27.5691 2.34095 27.4957 2.09852 27.3585 1.91552C27.2189 1.72776 26.9349 1.50435 26.3835 1.50435C25.3635 1.50435 21.0258 1.59466 19.7195 1.6208H19.6911H19.684C19.2912 1.49959 17.1945 0.886402 14.3855 0.886402C12.0025 0.886402 10.7909 1.11457 10.3815 1.21201L10.3554 1.21914L10.3365 1.20013C10.2986 1.16448 10.256 1.1312 10.2111 1.10506C10.0218 0.9886 9.74489 0.917299 9.38755 0.895909H9.34259V0.653484C9.34259 0.544156 9.26686 0.451464 9.16037 0.427697L7.63873 0.0997113C7.6127 0.0949579 7.58667 0.0949579 7.56064 0.0997113L7.51331 0.111595C7.46362 0.123478 7.41865 0.159129 7.39736 0.206663L7.37606 0.249444C7.36422 0.273211 7.35949 0.299355 7.35949 0.325499V0.477608H6.40581V0.325499C6.40581 0.304108 6.40107 0.280341 6.39161 0.258951L6.37504 0.220923C6.35848 0.178143 6.32298 0.142492 6.28038 0.125855L6.24015 0.109218C6.21886 0.0997113 6.19756 0.0949579 6.17389 0.0949579H5.76686C5.7432 0.0949579 5.7219 0.0997113 5.7006 0.109218L5.66037 0.125855C5.61777 0.142492 5.58464 0.178143 5.56571 0.220923L5.54915 0.261327C5.53968 0.282718 5.53495 0.304108 5.53495 0.327875V0.479985H4.58126V0.327875C4.58126 0.301731 4.57416 0.275588 4.5647 0.251821L4.5434 0.20904C4.51974 0.161506 4.47714 0.125855 4.42508 0.113972L4.37775 0.104465C4.35172 0.0973346 4.32569 0.0973346 4.29965 0.104465L2.61237 0.487115C2.50824 0.510882 2.43488 0.603573 2.43488 0.712902V0.874518L2.38992 0.879272C2.27159 0.888778 2.16274 0.903039 2.06098 0.924429C1.87166 0.962456 1.72257 1.01237 1.60662 1.08129C1.41967 1.18824 1.31791 1.34986 1.31791 1.53287V4.25182L1.28715 4.2637C1.16172 4.31124 1.04813 4.37066 0.944008 4.44196C0.572473 4.69627 0.366591 5.09793 0.368957 5.57327V8.78896H0.321628C0.30033 8.78896 0.279032 8.79609 0.257734 8.80322L0.21987 8.81985C0.177274 8.83887 0.144143 8.87214 0.125212 8.91492L0.108646 8.95533C0.0991806 8.97672 0.0944476 8.99811 0.0944476 9.02187V10.2673C0.0944476 10.291 0.0991806 10.3148 0.108646 10.3338L0.125212 10.3718C0.144143 10.4146 0.177274 10.4503 0.21987 10.4669L0.2601 10.4836C0.281398 10.4931 0.305063 10.4978 0.326361 10.4978H0.394989V13.2833H0.326361C0.302696 13.2833 0.281398 13.2881 0.2601 13.2976L0.222237 13.3142C0.17964 13.3332 0.144143 13.3665 0.127578 13.4093L0.111013 13.4497C0.101547 13.4711 0.0968141 13.4925 0.0968141 13.5162V14.7711C0.0968141 14.7949 0.101547 14.8163 0.111013 14.8377L0.127578 14.8781C0.14651 14.9209 0.17964 14.9541 0.222237 14.9732L0.2601 14.9898C0.281398 14.9993 0.305063 15.004 0.326361 15.004H0.394989V17.8442H0.326361V17.8371ZM26.9136 27.4414C26.8994 27.4414 26.8852 27.4414 26.8781 27.4414H1.57585C1.15226 27.4414 0.998437 27.2679 0.917977 27.1395C0.804387 26.9541 0.797287 26.726 0.797287 26.6594V26.5834L0.799654 23.9405C0.799654 23.9167 0.794921 23.8953 0.785455 23.8739L0.76889 23.8335C0.752325 23.7907 0.716828 23.7551 0.674231 23.7385L0.634001 23.7218C0.619803 23.7171 0.60797 23.7123 0.593772 23.7099L0.553542 23.7028V22.8614H0.600871C0.622169 22.8614 0.643467 22.8543 0.664765 22.8472L0.702629 22.8306C0.745225 22.8115 0.780722 22.7783 0.797287 22.7355L0.813853 22.6975C0.823318 22.6761 0.828051 22.6523 0.828051 22.6309V19.3558C0.828051 19.3344 0.823318 19.3106 0.813853 19.2893L0.797287 19.2512C0.780722 19.2084 0.745225 19.1728 0.702629 19.1562L0.664765 19.1395C0.645834 19.13 0.624536 19.1276 0.603237 19.1253H0.555908V18.3029H0.624536C0.6482 18.3029 0.671865 18.2982 0.690797 18.2887L0.72866 18.272C0.771256 18.253 0.806753 18.2197 0.823318 18.177L0.839884 18.1366C0.84935 18.1152 0.854083 18.0914 0.854083 18.07V14.7664C0.854083 14.7426 0.84935 14.7212 0.839884 14.6998L0.823318 14.6594C0.806753 14.6166 0.771256 14.5834 0.72866 14.5644L0.690797 14.5477C0.669498 14.5382 0.6482 14.5335 0.624536 14.5335H0.555908V13.7396H0.624536C0.6482 13.7396 0.669498 13.7349 0.690797 13.7278L0.731026 13.7111C0.773623 13.6945 0.80912 13.6588 0.825685 13.6161L0.84225 13.5756C0.851716 13.5543 0.856449 13.5305 0.856449 13.5091V10.2601C0.856449 10.2387 0.851716 10.215 0.84225 10.1936L0.825685 10.1556C0.806753 10.1128 0.773623 10.0795 0.731026 10.0605L0.693163 10.0439C0.671865 10.0344 0.6482 10.0296 0.626902 10.0296H0.558275V9.24529H0.605604C0.626902 9.24529 0.6482 9.24053 0.667132 9.23102L0.704995 9.21439C0.747592 9.19537 0.783089 9.1621 0.799654 9.11932L0.816219 9.07892C0.825685 9.05752 0.830418 9.03376 0.830418 9.01237V5.56376C0.830418 5.2334 0.953474 4.98622 1.20669 4.81272C1.30844 4.74142 1.4102 4.70102 1.47883 4.67725C1.51433 4.66537 1.54272 4.65586 1.56402 4.65111L1.58769 4.64398C1.70128 4.62496 1.7841 4.5299 1.7841 4.41581L1.777 1.54237C1.777 1.52811 1.777 1.50672 1.84326 1.4687C1.94029 1.41165 2.12487 1.36174 2.34022 1.33798C2.41358 1.32847 2.48931 1.32372 2.57214 1.31896C2.62893 1.31659 2.66206 1.31659 2.66679 1.31659C2.69046 1.31659 2.71176 1.31183 2.73305 1.30233L2.77328 1.28569C2.81588 1.26905 2.84901 1.2334 2.86794 1.19062L2.88451 1.15022C2.89397 1.12883 2.89871 1.10744 2.89871 1.08367V0.886402L4.12454 0.608327V0.701019C4.12454 0.724786 4.12927 0.746176 4.13873 0.767566L4.1553 0.80797C4.17186 0.850751 4.20736 0.886402 4.24996 0.903039L4.29019 0.919676C4.31149 0.929182 4.33515 0.933936 4.35645 0.933936H5.76923C5.79289 0.933936 5.81419 0.929182 5.83549 0.919676L5.87572 0.903039C5.89938 0.893532 5.92068 0.876895 5.93725 0.857881L5.97274 0.817477L6.00824 0.857881C6.02481 0.876895 6.0461 0.891155 6.06977 0.903039L6.11 0.919676C6.1313 0.929182 6.15496 0.933936 6.17626 0.933936H7.58904C7.6127 0.933936 7.634 0.929182 7.6553 0.919676L7.69316 0.903039C7.73576 0.884025 7.77126 0.850751 7.78782 0.805594L7.80439 0.76519C7.81385 0.743799 7.81859 0.720032 7.81859 0.698642V0.601197L8.88113 0.829361V1.10744C8.88113 1.1312 8.88586 1.15259 8.89533 1.17398L8.91189 1.21439C8.93082 1.25717 8.96395 1.29282 9.00655 1.30946L9.04678 1.32609C9.06808 1.3356 9.09174 1.34035 9.11304 1.34035C9.66916 1.34035 9.89871 1.44493 9.97207 1.49009C9.98863 1.49959 10.0005 1.5091 10.0099 1.51623L9.98863 1.55663L10.0336 1.53762L10.0407 1.55426C10.0478 1.57089 10.0549 1.58278 10.062 1.59228L10.0809 1.6208C10.1093 1.66359 10.1567 1.69211 10.2087 1.69924L10.256 1.70399C10.2821 1.70637 10.3057 1.70399 10.3294 1.69686L10.372 1.68498C10.5779 1.62793 11.7304 1.34035 14.3903 1.34035C15.9427 1.34035 17.2773 1.53762 18.1245 1.70399C18.6026 1.79906 18.9765 1.89175 19.2084 1.95354C19.3338 1.98682 19.4308 2.01534 19.4971 2.03435C19.561 2.05337 19.5941 2.06525 19.5965 2.06525C19.6012 2.06525 19.6201 2.07 19.6343 2.07238C19.6414 2.07238 19.6509 2.07476 19.6604 2.07476H19.6746L20.5525 2.05574C21.679 2.03198 25.4274 1.95592 26.3835 1.95592C26.6793 1.95592 26.8804 2.0296 26.9988 2.18171C27.1029 2.31956 27.1171 2.50256 27.1171 2.60001C27.1171 2.6523 27.1124 2.69508 27.11 2.72122L27.0982 2.79728C27.0982 2.79728 27.0982 2.81154 27.0982 2.81629V9.00286C27.0982 9.02663 27.1029 9.04802 27.1124 9.06941L27.1289 9.10744C27.1479 9.15259 27.181 9.18587 27.2236 9.20488L27.2638 9.22152C27.2851 9.23102 27.3064 9.23578 27.3301 9.23578H27.4626V9.99395H27.3845C27.3608 9.99395 27.3395 9.9987 27.3182 10.0082L27.2804 10.0248C27.2378 10.0415 27.2023 10.0771 27.1857 10.1199L27.1692 10.1603C27.1597 10.1817 27.155 10.2055 27.155 10.2269V13.502C27.155 13.5234 27.1597 13.5471 27.1692 13.5685L27.1857 13.6065C27.2047 13.6493 27.2378 13.685 27.2804 13.7016L27.3182 13.7183C27.3395 13.7278 27.3632 13.7325 27.3845 13.7325H27.4626V14.5263H27.3845C27.3608 14.5263 27.3395 14.5311 27.3182 14.5406L27.278 14.5572C27.2354 14.5739 27.2023 14.6095 27.1834 14.6523L27.1668 14.6927C27.1573 14.7141 27.1526 14.7379 27.1526 14.7592V18.0629C27.1526 18.0843 27.1573 18.108 27.1668 18.1294L27.1834 18.1698C27.2023 18.2126 27.2354 18.2459 27.278 18.2649L27.3182 18.2815C27.3395 18.291 27.3608 18.2958 27.3845 18.2958H27.4626V19.0991H27.3845C27.3632 19.0991 27.3395 19.1039 27.3182 19.1134L27.2804 19.13C27.2378 19.1467 27.2023 19.1823 27.1857 19.2251L27.1692 19.2655C27.1597 19.2869 27.155 19.3106 27.155 19.332V22.6262C27.155 22.6499 27.1597 22.6713 27.1692 22.6927L27.1857 22.7331C27.2023 22.7759 27.2378 22.8092 27.2804 22.8282L27.3206 22.8448C27.3419 22.8543 27.3632 22.8591 27.3869 22.8591H27.465V23.6767L27.4295 23.6862C27.4295 23.6862 27.4153 23.6909 27.4105 23.6933L27.3727 23.7099C27.3301 23.7266 27.2946 23.7622 27.278 23.805L27.2615 23.8454C27.252 23.8668 27.2473 23.8906 27.2473 23.912V26.6998C27.2473 27.13 27.1431 27.3035 27.0792 27.3701C27.0177 27.4342 26.9562 27.4437 26.9325 27.4437L26.9136 27.4414ZM0.652933 23.622C0.652933 23.622 0.667132 23.6267 0.674231 23.6291L0.714461 23.6458C0.780722 23.6743 0.835151 23.7266 0.861182 23.7931L0.877747 23.8335C0.891946 23.8644 0.899045 23.9024 0.899045 23.9381V26.581C0.899045 26.581 0.899045 26.5976 0.899045 26.6048V26.6594C0.899045 26.6998 0.899045 26.9185 1.00317 27.0872C1.0718 27.1966 1.20432 27.3439 1.58059 27.3439H26.8828C26.8828 27.3439 26.9136 27.3439 26.923 27.3463C26.923 27.3463 26.9562 27.3415 26.9964 27.3011C27.039 27.256 27.1384 27.1086 27.1384 26.6975V23.9096C27.1384 23.8739 27.1455 23.8407 27.1597 23.8074L27.1763 23.767C27.2047 23.7004 27.2567 23.6458 27.3253 23.6172L27.3585 23.603V22.9518C27.3277 22.9518 27.2993 22.9423 27.2733 22.9327L27.2331 22.9161C27.1668 22.8876 27.1147 22.8353 27.0887 22.7688L27.0721 22.7284C27.0579 22.6951 27.0508 22.6594 27.0508 22.6238V19.3297C27.0508 19.294 27.0579 19.2584 27.0721 19.2251L27.0887 19.1847C27.1171 19.1181 27.1692 19.0635 27.2354 19.0373L27.2757 19.0207C27.304 19.0088 27.3324 19.004 27.3608 19.0017V18.3909C27.3301 18.3909 27.3017 18.3814 27.2757 18.3718L27.2354 18.3552C27.1692 18.3267 27.1171 18.2744 27.0887 18.2079L27.0721 18.1674C27.0579 18.1342 27.0508 18.0985 27.0508 18.0629V14.7592C27.0508 14.7236 27.0579 14.6879 27.0721 14.6547L27.0887 14.6143C27.1147 14.5477 27.1692 14.4954 27.2354 14.4669L27.2757 14.4503C27.304 14.4384 27.3324 14.4313 27.3608 14.4289V13.8276C27.3324 13.8276 27.304 13.8204 27.2757 13.8086L27.2378 13.7919C27.1715 13.7634 27.1171 13.7111 27.0911 13.6446L27.0745 13.6042C27.0603 13.5709 27.0532 13.5352 27.0532 13.4996V10.2245C27.0532 10.1888 27.0603 10.1532 27.0745 10.1199L27.0911 10.0795C27.1171 10.013 27.1715 9.9583 27.2378 9.93215L27.2757 9.91552C27.304 9.90363 27.3324 9.89888 27.3608 9.8965V9.33085H27.3253C27.2899 9.33085 27.2544 9.32372 27.2212 9.30946L27.181 9.29282C27.1147 9.2643 27.0603 9.21201 27.0343 9.14309L27.0177 9.10506C27.0035 9.07178 26.9964 9.03613 26.9964 9.00286V2.82817C26.9964 2.82817 26.9964 2.81154 26.9964 2.80203V2.78539L27.0082 2.71884C27.0106 2.69745 27.0153 2.65705 27.0153 2.60952C27.0153 2.52395 27.0035 2.36471 26.9159 2.25063C26.8189 2.12467 26.6438 2.06287 26.3788 2.06287C25.4227 2.06287 21.6742 2.13893 20.5502 2.16269L19.6533 2.18171C19.6367 2.18171 19.6249 2.18171 19.6107 2.17695C19.5941 2.17458 19.5681 2.16982 19.5586 2.16507C19.5515 2.16507 19.5207 2.15319 19.464 2.13655C19.3977 2.11754 19.303 2.08902 19.18 2.05574C18.9504 1.99395 18.5765 1.90126 18.1032 1.80619C17.2608 1.63982 15.9332 1.44255 14.3879 1.44255C11.7398 1.44255 10.5992 1.72538 10.398 1.78242L10.3578 1.7943C10.3223 1.80619 10.2821 1.81094 10.2442 1.80619L10.1969 1.80143C10.1164 1.79193 10.0454 1.74915 10.0005 1.68022L9.9839 1.65408C9.97443 1.63982 9.9626 1.6208 9.95314 1.59941H9.95077C9.95077 1.59941 9.9342 1.58515 9.92237 1.57565C9.85611 1.53524 9.6455 1.44017 9.11541 1.44017C9.07991 1.44017 9.04678 1.43304 9.01365 1.41878L8.97342 1.40215C8.90716 1.376 8.85273 1.32134 8.8267 1.25479L8.81013 1.21439C8.79594 1.18111 8.78884 1.14546 8.78884 1.10981V0.910169L7.91798 0.722409C7.91798 0.748553 7.90851 0.777073 7.89905 0.803217L7.88248 0.843621C7.85408 0.910169 7.80202 0.964833 7.73576 0.993354L7.69553 1.00999C7.6624 1.02425 7.6269 1.03138 7.59141 1.03138H6.17863C6.14313 1.03138 6.10763 1.02425 6.0745 1.00999L6.03427 0.993354C6.01297 0.983847 5.99168 0.971963 5.97274 0.957703C5.95381 0.971963 5.93488 0.983847 5.91358 0.993354L5.87335 1.00999C5.84022 1.02425 5.80472 1.03138 5.76923 1.03138H4.35645C4.32095 1.03138 4.28546 1.02425 4.25232 1.00999L4.21209 0.993354C4.14583 0.964833 4.09141 0.912546 4.06537 0.845998L4.04881 0.805594C4.03934 0.781827 4.03224 0.755683 4.02988 0.729539L2.99573 0.964833V1.08605C2.99573 1.1217 2.98863 1.15735 2.97443 1.19062L2.95787 1.23102C2.92947 1.29757 2.87741 1.35224 2.81115 1.37838L2.77092 1.39502C2.74015 1.40928 2.70229 1.41641 2.66679 1.41641C2.66443 1.41641 2.6313 1.41641 2.57687 1.41878C2.49641 1.42354 2.42305 1.42829 2.35205 1.43542C2.15327 1.45919 1.97579 1.50435 1.89296 1.55426C1.88349 1.55901 1.87876 1.56376 1.87403 1.56614L1.88113 4.41819C1.88113 4.57981 1.76754 4.71528 1.60898 4.74142L1.58769 4.74618C1.57112 4.75093 1.54509 4.75806 1.51196 4.76994C1.45043 4.79133 1.35577 4.82936 1.26348 4.89353C1.03867 5.04802 0.929809 5.26905 0.929809 5.56614V9.01474C0.929809 9.04802 0.92271 9.08367 0.908511 9.11694L0.891946 9.15735C0.863548 9.22389 0.811486 9.27856 0.745225 9.3047L0.707362 9.32134C0.690796 9.32847 0.674231 9.33322 0.657666 9.33798V9.93691C0.683697 9.93928 0.709728 9.94641 0.735759 9.95592L0.773623 9.97256C0.839884 10.0011 0.891946 10.0534 0.920344 10.1199L0.936909 10.1603C0.951108 10.1936 0.958207 10.2292 0.958207 10.2649V13.5139C0.958207 13.5495 0.951108 13.5852 0.936909 13.6184L0.920344 13.6588C0.891946 13.7254 0.839884 13.78 0.773623 13.8062L0.733393 13.8228C0.709728 13.8323 0.683697 13.8395 0.657666 13.8418V14.4455C0.683697 14.4479 0.709728 14.455 0.735759 14.4645L0.773623 14.4812C0.839884 14.5073 0.891946 14.562 0.920344 14.6285L0.936909 14.6666C0.951108 14.6998 0.958207 14.7355 0.958207 14.7711V18.0748C0.958207 18.1104 0.951108 18.1461 0.936909 18.1793L0.920344 18.2197C0.891946 18.2863 0.839884 18.3386 0.773623 18.3671L0.735759 18.3837C0.712095 18.3932 0.686064 18.4004 0.657666 18.4027V19.0373C0.674231 19.0421 0.690796 19.0468 0.707362 19.054L0.745225 19.0706C0.813853 19.0991 0.865915 19.1514 0.891946 19.218L0.908511 19.2584C0.92271 19.2916 0.929809 19.3273 0.929809 19.3606V22.6357C0.929809 22.6713 0.92271 22.7046 0.908511 22.7379L0.891946 22.7759C0.863548 22.8424 0.811486 22.8947 0.745225 22.9232L0.707362 22.9399C0.690796 22.947 0.674231 22.9518 0.657666 22.9565V23.6291L0.652933 23.622Z" fill="#0062B2"/>
<path d="M6.19778 5.64944H0.636588C0.482768 5.64944 0.357346 5.52348 0.357346 5.37137C0.357346 5.21926 0.482768 5.09329 0.636588 5.09329H6.19778C6.3516 5.09329 6.47465 5.21926 6.47465 5.37137C6.47465 5.52348 6.34923 5.64944 6.19778 5.64944Z" fill="#0062B2"/>
<path d="M6.19778 5.69935H0.63422C0.454368 5.69935 0.307648 5.552 0.307648 5.37137C0.307648 5.19074 0.454368 5.04338 0.63422 5.04338H6.19541C6.37526 5.04338 6.52198 5.19074 6.52198 5.37137C6.52198 5.552 6.37526 5.69935 6.19541 5.69935H6.19778ZM0.636586 5.14083C0.508797 5.14083 0.407039 5.2454 0.407039 5.37137C0.407039 5.49733 0.511164 5.60191 0.636586 5.60191H6.19778C6.32557 5.60191 6.42732 5.49733 6.42732 5.37137C6.42732 5.2454 6.3232 5.14083 6.19778 5.14083H0.63422H0.636586Z" fill="#0062B2"/>
<path d="M9.95571 5.64945H8.51217C8.35835 5.64945 8.23529 5.52348 8.23529 5.37137C8.23529 5.21926 8.36071 5.0933 8.51217 5.0933H9.94861C10.4314 5.0933 10.6041 4.89841 10.694 4.75343C10.81 4.56091 10.8124 4.33988 10.8124 4.31374V2.3482C10.8124 2.16281 10.8905 1.99169 11.0348 1.86573C11.1318 1.78016 11.2573 1.71362 11.4135 1.66371C11.6241 1.59716 11.8276 1.5829 11.8844 1.58052C11.8915 1.58052 11.8962 1.58052 11.9033 1.58052H15.6376C16.1677 1.58052 16.4919 1.7659 16.6717 1.92039C16.8752 2.09389 16.9486 2.27214 16.9604 2.30779C16.9652 2.3173 16.9675 2.32918 16.9699 2.34107C16.9723 2.35295 16.977 2.38385 16.977 2.39573L17.048 4.21629C17.048 4.5728 17.145 4.80334 17.3438 4.93643C17.5118 5.04814 17.713 5.05527 17.7745 5.05527H17.81H27.2451C27.3989 5.05527 27.5243 5.18123 27.5243 5.33334C27.5243 5.48545 27.3989 5.61142 27.2451 5.61142H17.8384C17.8218 5.61142 17.8005 5.61142 17.7769 5.61142C17.6207 5.61142 17.3201 5.5829 17.0409 5.39989C16.7924 5.23827 16.4942 4.90316 16.4942 4.23055L16.4256 2.47654C16.4256 2.47654 16.4256 2.47416 16.4233 2.47179C16.402 2.43851 16.3665 2.39098 16.3097 2.34344C16.1511 2.20797 15.9239 2.13667 15.6352 2.13667H11.908C11.908 2.13667 11.882 2.13667 11.856 2.14142C11.8158 2.14618 11.7613 2.15331 11.7022 2.16519C11.5696 2.19133 11.456 2.23887 11.404 2.2864C11.3732 2.31492 11.3709 2.32918 11.3709 2.35057V4.28997V4.31611C11.3709 4.43495 11.3496 4.74867 11.1697 5.04576C11.0348 5.27155 10.6964 5.65182 9.95571 5.65182V5.64945Z" fill="#0062B2"/>
<path d="M9.95571 5.69935H8.51216C8.33231 5.69935 8.18559 5.552 8.18559 5.37137C8.18559 5.19074 8.33231 5.04338 8.51216 5.04338H9.94861C10.4077 5.04338 10.571 4.86275 10.6538 4.72728C10.7674 4.53952 10.765 4.31611 10.765 4.31373V2.34582C10.765 2.14617 10.8479 1.96317 11.0041 1.82769C11.1058 1.73738 11.236 1.66608 11.3992 1.61379C11.617 1.54487 11.8252 1.53061 11.8844 1.52823C11.8962 1.52823 11.9009 1.52823 11.9057 1.52823H15.64C16.1842 1.52823 16.5203 1.72074 16.7072 1.87998C16.9202 2.06299 16.9959 2.25075 17.0101 2.2864C17.0149 2.30066 17.0196 2.31254 17.022 2.3268C17.0243 2.34106 17.0314 2.37434 17.0314 2.39097L17.1024 4.21153C17.1024 4.5514 17.19 4.76768 17.3769 4.89365C17.5189 4.98872 17.6893 5.00298 17.7792 5.00535H17.8124H27.2498C27.4297 5.00535 27.5764 5.15271 27.5764 5.33334C27.5764 5.51397 27.4297 5.66132 27.2498 5.66132H17.8431C17.8289 5.66132 17.8076 5.66132 17.7816 5.66132C17.6207 5.66132 17.3059 5.63043 17.0196 5.44267C16.7617 5.27392 16.4516 4.92692 16.4516 4.23292L16.383 2.49317C16.3546 2.45039 16.3215 2.41474 16.2836 2.38147C16.1322 2.25312 15.9168 2.18658 15.64 2.18658H11.9128C11.9128 2.18658 11.8867 2.18658 11.8654 2.19133C11.837 2.19371 11.7826 2.20084 11.714 2.2151C11.5933 2.23886 11.4844 2.28165 11.4371 2.32443C11.4182 2.34106 11.4182 2.34344 11.4182 2.35295V4.31135C11.4182 4.44207 11.3969 4.76531 11.2123 5.0719C11.0727 5.30719 10.7224 5.70173 9.95807 5.70173L9.95571 5.69935ZM11.8844 1.57814V1.62567C11.8299 1.62567 11.6335 1.64231 11.4276 1.70648C11.2762 1.75402 11.1579 1.81819 11.0656 1.899C10.9331 2.01545 10.8597 2.17469 10.8597 2.34582V4.31135C10.8597 4.31135 10.8621 4.56566 10.7343 4.77481C10.6396 4.9293 10.455 5.13607 9.94861 5.13845H8.51216C8.38438 5.13845 8.28262 5.24302 8.28262 5.36899C8.28262 5.49495 8.38674 5.59953 8.51216 5.59953H9.95571C10.6727 5.59953 10.997 5.23352 11.1271 5.01486C11.2999 4.72728 11.3188 4.42544 11.3212 4.31135V4.28521V2.34582C11.3212 2.31017 11.3283 2.28165 11.3709 2.24362C11.43 2.18895 11.5507 2.14142 11.6927 2.1129C11.7613 2.09864 11.8157 2.09151 11.8536 2.08913C11.8773 2.08676 11.8962 2.08438 11.9057 2.08438H15.6376C15.9381 2.08438 16.1748 2.15806 16.3428 2.30066C16.3901 2.34106 16.4327 2.3886 16.4658 2.44088L16.4729 2.45277V2.46941L16.5439 4.22342C16.5439 4.87463 16.8303 5.19787 17.0693 5.35473C17.3367 5.53061 17.6278 5.55675 17.7792 5.55675C17.8029 5.55675 17.8218 5.55675 17.8384 5.55675H27.2498C27.3776 5.55675 27.4794 5.45217 27.4794 5.32621C27.4794 5.20024 27.3752 5.09567 27.2498 5.09567H17.7792C17.6775 5.09567 17.4858 5.07903 17.3225 4.9697C17.1095 4.8271 17.0054 4.57992 17.003 4.20916L16.932 2.39097C16.932 2.39097 16.9273 2.35532 16.9249 2.34344C16.9249 2.33393 16.9202 2.3268 16.9178 2.3173C16.9107 2.29828 16.8421 2.12241 16.6433 1.95128C16.4706 1.80155 16.1558 1.62092 15.64 1.62092H11.9057L11.8867 1.57339L11.8844 1.57814Z" fill="#0062B2"/>
<path d="M27.4581 24.1901H22.259C22.1051 24.1901 21.9821 24.0642 21.9821 23.9121C21.9821 23.76 22.1075 23.634 22.259 23.634H27.4581C27.6119 23.634 27.7373 23.76 27.7373 23.9121C27.7373 24.0642 27.6119 24.1901 27.4581 24.1901ZM20.5551 24.1901H13.5267C13.3729 24.1901 13.2498 24.0642 13.2498 23.9121C13.2498 23.76 13.3753 23.634 13.5267 23.634H20.5551C20.7089 23.634 20.8344 23.76 20.8344 23.9121C20.8344 24.0642 20.7089 24.1901 20.5551 24.1901ZM1.78668 24.1901H0.326574C0.172754 24.1901 0.0496979 24.0642 0.0496979 23.9121C0.0496979 23.76 0.17512 23.634 0.326574 23.634H1.78905C1.94287 23.634 2.06592 23.76 2.06592 23.9121C2.06592 24.0642 1.9405 24.1901 1.78905 24.1901H1.78668ZM27.3114 22.9067H22.3536C22.1998 22.9067 22.0744 22.7807 22.0744 22.6286C22.0744 22.4765 22.1998 22.3506 22.3536 22.3506H27.3114C27.4652 22.3506 27.5882 22.4765 27.5882 22.6286C27.5882 22.7807 27.4628 22.9067 27.3114 22.9067ZM20.4983 22.9067H13.5267C13.3729 22.9067 13.2498 22.7807 13.2498 22.6286C13.2498 22.4765 13.3753 22.3506 13.5267 22.3506H20.4983C20.6521 22.3506 20.7752 22.4765 20.7752 22.6286C20.7752 22.7807 20.6498 22.9067 20.4983 22.9067ZM1.78668 22.9067H0.326574C0.172754 22.9067 0.0496979 22.7807 0.0496979 22.6286C0.0496979 22.4765 0.17512 22.3506 0.326574 22.3506H1.78905C1.94287 22.3506 2.06592 22.4765 2.06592 22.6286C2.06592 22.7807 1.9405 22.9067 1.78905 22.9067H1.78668ZM27.3114 19.6316H22.2684C22.1146 19.6316 21.9916 19.5056 21.9916 19.3535C21.9916 19.2014 22.117 19.0731 22.2684 19.0731H27.3114C27.4652 19.0731 27.5882 19.199 27.5882 19.3535C27.5882 19.508 27.4628 19.6316 27.3114 19.6316ZM20.5811 19.6316H13.5267C13.3729 19.6316 13.2498 19.5056 13.2498 19.3535C13.2498 19.2014 13.3753 19.0731 13.5267 19.0731H20.5811C20.735 19.0731 20.858 19.199 20.858 19.3535C20.858 19.508 20.7326 19.6316 20.5811 19.6316ZM1.78668 19.6316H0.326574C0.172754 19.6316 0.0496979 19.5056 0.0496979 19.3535C0.0496979 19.2014 0.17512 19.0731 0.326574 19.0731H1.78905C1.94287 19.0731 2.06592 19.199 2.06592 19.3535C2.06592 19.508 1.9405 19.6316 1.78905 19.6316H1.78668ZM27.3114 18.3482H13.5267C13.3729 18.3482 13.2498 18.2222 13.2498 18.0701C13.2498 17.918 13.3753 17.792 13.5267 17.792H27.3114C27.4652 17.792 27.5882 17.918 27.5882 18.0701C27.5882 18.2222 27.4628 18.3482 27.3114 18.3482ZM1.78668 18.3482H0.326574C0.172754 18.3482 0.0496979 18.2222 0.0496979 18.0701C0.0496979 17.918 0.17512 17.792 0.326574 17.792H1.78905C1.94287 17.792 2.06592 17.918 2.06592 18.0701C2.06592 18.2222 1.9405 18.3482 1.78905 18.3482H1.78668ZM27.3114 15.0446H21.4638C21.3668 15.0446 21.2792 14.9923 21.2295 14.9162C21.1799 14.9947 21.0923 15.0446 20.9953 15.0446H13.5267C13.3729 15.0446 13.2498 14.9186 13.2498 14.7665C13.2498 14.6144 13.3753 14.4884 13.5267 14.4884H20.9953C21.0923 14.4884 21.1799 14.5407 21.2295 14.6168C21.2792 14.5383 21.3644 14.4884 21.4638 14.4884H27.3114C27.4652 14.4884 27.5882 14.6144 27.5882 14.7665C27.5882 14.9186 27.4628 15.0446 27.3114 15.0446ZM1.78668 15.0446H0.326574C0.172754 15.0446 0.0496979 14.9186 0.0496979 14.7665C0.0496979 14.6144 0.17512 14.4884 0.326574 14.4884H1.78905C1.94287 14.4884 2.06592 14.6144 2.06592 14.7665C2.06592 14.9186 1.9405 15.0446 1.78905 15.0446H1.78668ZM27.3114 9.29531H13.5267C13.3729 9.29531 13.2498 9.16934 13.2498 9.01723C13.2498 8.86512 13.3753 8.73916 13.5267 8.73916H27.3114C27.4652 8.73916 27.5882 8.86512 27.5882 9.01723C27.5882 9.16934 27.4628 9.29531 27.3114 9.29531ZM1.78668 9.29531H0.326574C0.172754 9.29531 0.0496979 9.16934 0.0496979 9.01723C0.0496979 8.86512 0.17512 8.73916 0.326574 8.73916H1.78905C1.94287 8.73916 2.06592 8.86512 2.06592 9.01723C2.06592 9.16934 1.9405 9.29531 1.78905 9.29531H1.78668ZM9.10379 1.3975H2.66464C2.51082 1.3975 2.3854 1.27154 2.3854 1.11943C2.3854 0.96732 2.51082 0.841354 2.66464 0.841354H9.10616C9.25998 0.841354 9.38303 0.96732 9.38303 1.11943C9.38303 1.27154 9.25761 1.3975 9.10616 1.3975H9.10379Z" fill="#0062B2"/>
<path d="M27.4581 24.2377H22.259C22.0791 24.2377 21.9324 24.0903 21.9324 23.9097C21.9324 23.7291 22.0791 23.5817 22.259 23.5817H27.4581C27.6379 23.5817 27.7847 23.7291 27.7847 23.9097C27.7847 24.0903 27.6379 24.2377 27.4581 24.2377ZM22.259 23.6791C22.1312 23.6791 22.0294 23.7837 22.0294 23.9097C22.0294 24.0357 22.1335 24.1402 22.259 24.1402H27.4581C27.5859 24.1402 27.6876 24.0357 27.6876 23.9097C27.6876 23.7837 27.5835 23.6791 27.4581 23.6791H22.259ZM20.5551 24.2377H13.5267C13.3469 24.2377 13.2001 24.0903 13.2001 23.9097C13.2001 23.7291 13.3469 23.5817 13.5267 23.5817H20.5551C20.735 23.5817 20.8817 23.7291 20.8817 23.9097C20.8817 24.0903 20.735 24.2377 20.5551 24.2377ZM13.5267 23.6791C13.3989 23.6791 13.2972 23.7837 13.2972 23.9097C13.2972 24.0357 13.4013 24.1402 13.5267 24.1402H20.5551C20.6829 24.1402 20.7847 24.0357 20.7847 23.9097C20.7847 23.7837 20.6805 23.6791 20.5551 23.6791H13.5267ZM1.78668 24.2377H0.326572C0.146721 24.2377 0 24.0903 0 23.9097C0 23.7291 0.146721 23.5817 0.326572 23.5817H1.78905C1.9689 23.5817 2.11562 23.7291 2.11562 23.9097C2.11562 24.0903 1.9689 24.2377 1.78905 24.2377H1.78668ZM0.324206 23.6791C0.196416 23.6791 0.0946585 23.7837 0.0946585 23.9097C0.0946585 24.0357 0.198783 24.1402 0.324206 24.1402H1.78668C1.91447 24.1402 2.01623 24.0357 2.01623 23.9097C2.01623 23.7837 1.9121 23.6791 1.78668 23.6791H0.326572H0.324206ZM27.309 22.9542H22.3512C22.1714 22.9542 22.0247 22.8069 22.0247 22.6263C22.0247 22.4456 22.1714 22.2983 22.3512 22.2983H27.309C27.4888 22.2983 27.6356 22.4456 27.6356 22.6263C27.6356 22.8069 27.4888 22.9542 27.309 22.9542ZM22.3512 22.3957C22.2235 22.3957 22.1217 22.5003 22.1217 22.6263C22.1217 22.7522 22.2258 22.8568 22.3512 22.8568H27.309C27.4368 22.8568 27.5385 22.7522 27.5385 22.6263C27.5385 22.5003 27.4344 22.3957 27.309 22.3957H22.3512ZM20.4959 22.9542H13.5243C13.3445 22.9542 13.1978 22.8069 13.1978 22.6263C13.1978 22.4456 13.3445 22.2983 13.5243 22.2983H20.4959C20.6758 22.2983 20.8225 22.4456 20.8225 22.6263C20.8225 22.8069 20.6758 22.9542 20.4959 22.9542ZM13.5243 22.3957C13.3966 22.3957 13.2948 22.5003 13.2948 22.6263C13.2948 22.7522 13.3989 22.8568 13.5243 22.8568H20.4959C20.6237 22.8568 20.7255 22.7522 20.7255 22.6263C20.7255 22.5003 20.6214 22.3957 20.4959 22.3957H13.5243ZM1.78431 22.9542H0.326572C0.146721 22.9542 0 22.8069 0 22.6263C0 22.4456 0.146721 22.2983 0.326572 22.2983H1.78905C1.9689 22.2983 2.11562 22.4456 2.11562 22.6263C2.11562 22.8069 1.9689 22.9542 1.78905 22.9542H1.78431ZM0.321839 22.3957C0.19405 22.3957 0.0922921 22.5003 0.0922921 22.6263C0.0922921 22.7522 0.196416 22.8568 0.321839 22.8568H1.78431C1.9121 22.8568 2.01386 22.7522 2.01386 22.6263C2.01386 22.5003 1.90974 22.3957 1.78431 22.3957H0.326572H0.321839ZM27.3066 19.6768H22.2637C22.0838 19.6768 21.9371 19.5294 21.9371 19.3488C21.9371 19.1682 22.0838 19.0208 22.2637 19.0208H27.3066C27.4865 19.0208 27.6332 19.1682 27.6332 19.3488C27.6332 19.5294 27.4865 19.6768 27.3066 19.6768ZM22.2637 19.1182C22.1359 19.1182 22.0341 19.2228 22.0341 19.3488C22.0341 19.4747 22.1383 19.5793 22.2637 19.5793H27.3066C27.4344 19.5793 27.5362 19.4747 27.5362 19.3488C27.5362 19.2228 27.432 19.1182 27.3066 19.1182H22.2637ZM20.5764 19.6768H13.522C13.3421 19.6768 13.1954 19.5294 13.1954 19.3488C13.1954 19.1682 13.3421 19.0208 13.522 19.0208H20.5764C20.7563 19.0208 20.903 19.1682 20.903 19.3488C20.903 19.5294 20.7563 19.6768 20.5764 19.6768ZM13.522 19.1182C13.3942 19.1182 13.2924 19.2228 13.2924 19.3488C13.2924 19.4747 13.3966 19.5793 13.522 19.5793H20.5764C20.7042 19.5793 20.8059 19.4747 20.8059 19.3488C20.8059 19.2228 20.7018 19.1182 20.5764 19.1182H13.522ZM1.78195 19.6768H0.326572C0.146721 19.6768 0 19.5294 0 19.3488C0 19.1682 0.146721 19.0208 0.326572 19.0208H1.78905C1.9689 19.0208 2.11562 19.1682 2.11562 19.3488C2.11562 19.5294 1.9689 19.6768 1.78905 19.6768H1.78195ZM0.319473 19.1182C0.191684 19.1182 0.0899256 19.2228 0.0899256 19.3488C0.0899256 19.4747 0.19405 19.5793 0.319473 19.5793H1.78195C1.90974 19.5793 2.01149 19.4747 2.01149 19.3488C2.01149 19.2228 1.90737 19.1182 1.78195 19.1182H0.326572H0.319473ZM27.3066 18.3933H13.522C13.3421 18.3933 13.1954 18.246 13.1954 18.0654C13.1954 17.8847 13.3421 17.7374 13.522 17.7374H27.3066C27.4865 17.7374 27.6332 17.8847 27.6332 18.0654C27.6332 18.246 27.4865 18.3933 27.3066 18.3933ZM13.522 17.8348C13.3942 17.8348 13.2924 17.9394 13.2924 18.0654C13.2924 18.1913 13.3966 18.2959 13.522 18.2959H27.3066C27.4344 18.2959 27.5362 18.1913 27.5362 18.0654C27.5362 17.9394 27.432 17.8348 27.3066 17.8348H13.522ZM1.78195 18.3933H0.326572C0.146721 18.3933 0 18.246 0 18.0654C0 17.8847 0.146721 17.7374 0.326572 17.7374H1.78905C1.9689 17.7374 2.11562 17.8847 2.11562 18.0654C2.11562 18.246 1.9689 18.3933 1.78905 18.3933H1.78195ZM0.319473 17.8348C0.191684 17.8348 0.0899256 17.9394 0.0899256 18.0654C0.0899256 18.1913 0.19405 18.2959 0.319473 18.2959H1.78195C1.90974 18.2959 2.01149 18.1913 2.01149 18.0654C2.01149 17.9394 1.90737 17.8348 1.78195 17.8348H0.326572H0.319473ZM27.3066 15.0897H21.4591C21.3692 15.0897 21.2863 15.0541 21.2248 14.9899C21.1633 15.0541 21.0805 15.0897 20.9905 15.0897H13.522C13.3421 15.0897 13.1954 14.9424 13.1954 14.7617C13.1954 14.5811 13.3421 14.4337 13.522 14.4337H20.9905C21.0805 14.4337 21.1633 14.4694 21.2248 14.5336C21.2863 14.4694 21.3692 14.4337 21.4591 14.4337H27.3066C27.4865 14.4337 27.6332 14.5811 27.6332 14.7617C27.6332 14.9424 27.4865 15.0897 27.3066 15.0897ZM21.2248 14.8235L21.265 14.8877C21.3076 14.9542 21.3786 14.9947 21.4591 14.9947H27.3066C27.4344 14.9947 27.5362 14.8901 27.5362 14.7641C27.5362 14.6381 27.432 14.5336 27.3066 14.5336H21.4591C21.381 14.5336 21.3076 14.574 21.265 14.6405L21.2248 14.7047L21.1846 14.6405C21.142 14.574 21.0686 14.5336 20.9905 14.5336H13.522C13.3942 14.5336 13.2924 14.6381 13.2924 14.7641C13.2924 14.8901 13.3966 14.9947 13.522 14.9947H20.9905C21.0686 14.9947 21.142 14.9542 21.1846 14.8877L21.2248 14.8235ZM1.78195 15.0897H0.326572C0.146721 15.0897 0 14.9424 0 14.7617C0 14.5811 0.146721 14.4337 0.326572 14.4337H1.78905C1.9689 14.4337 2.11562 14.5811 2.11562 14.7617C2.11562 14.9424 1.9689 15.0897 1.78905 15.0897H1.78195ZM0.319473 14.5312C0.191684 14.5312 0.0899256 14.6358 0.0899256 14.7617C0.0899256 14.8877 0.19405 14.9923 0.319473 14.9923H1.78195C1.90974 14.9923 2.01149 14.8877 2.01149 14.7617C2.01149 14.6358 1.90737 14.5312 1.78195 14.5312H0.326572H0.319473ZM27.3066 9.33809H13.522C13.3421 9.33809 13.1954 9.19073 13.1954 9.0101C13.1954 8.82947 13.3421 8.68211 13.522 8.68211H27.3066C27.4865 8.68211 27.6332 8.82947 27.6332 9.0101C27.6332 9.19073 27.4865 9.33809 27.3066 9.33809ZM13.522 8.77956C13.3942 8.77956 13.2924 8.88414 13.2924 9.0101C13.2924 9.13607 13.3966 9.24064 13.522 9.24064H27.3066C27.4344 9.24064 27.5362 9.13607 27.5362 9.0101C27.5362 8.88414 27.432 8.77956 27.3066 8.77956H13.522ZM1.78195 9.33809H0.326572C0.146721 9.33809 0 9.19073 0 9.0101C0 8.82947 0.146721 8.68211 0.326572 8.68211H1.78905C1.9689 8.68211 2.11562 8.82947 2.11562 9.0101C2.11562 9.19073 1.9689 9.33809 1.78905 9.33809H1.78195ZM0.319473 8.77956C0.191684 8.77956 0.0899256 8.88414 0.0899256 9.0101C0.0899256 9.13607 0.19405 9.24064 0.319473 9.24064H1.78195C1.90974 9.24064 2.01149 9.13607 2.01149 9.0101C2.01149 8.88414 1.90737 8.77956 1.78195 8.77956H0.326572H0.319473ZM9.10379 1.44741H2.66464C2.48479 1.44741 2.33807 1.30006 2.33807 1.11943C2.33807 0.938799 2.48479 0.791443 2.66464 0.791443H9.10615C9.286 0.791443 9.43272 0.938799 9.43272 1.11943C9.43272 1.30006 9.286 1.44741 9.10615 1.44741H9.10379ZM2.66464 0.888888C2.53685 0.888888 2.43509 0.993463 2.43509 1.11943C2.43509 1.24539 2.53922 1.34997 2.66464 1.34997H9.10615C9.23394 1.34997 9.3357 1.24539 9.3357 1.11943C9.3357 0.993463 9.23158 0.888888 9.10615 0.888888H2.66464Z" fill="#0062B2"/>
<path d="M27.3137 13.7897H13.5291C13.3753 13.7897 13.2522 13.6637 13.2522 13.5116C13.2522 13.3595 13.3776 13.2335 13.5291 13.2335H27.3137C27.4675 13.2335 27.5906 13.3595 27.5906 13.5116C27.5906 13.6637 27.4652 13.7897 27.3137 13.7897ZM1.78905 13.7897H0.326574C0.172754 13.7897 0.0496979 13.6637 0.0496979 13.5116C0.0496979 13.3595 0.17512 13.2335 0.326574 13.2335H1.78905C1.94287 13.2335 2.06592 13.3595 2.06592 13.5116C2.06592 13.6637 1.9405 13.7897 1.78905 13.7897ZM27.3137 10.5146H13.5291C13.3753 10.5146 13.2522 10.3886 13.2522 10.2365C13.2522 10.0844 13.3776 9.9584 13.5291 9.9584H27.3137C27.4675 9.9584 27.5906 10.0844 27.5906 10.2365C27.5906 10.3886 27.4652 10.5146 27.3137 10.5146ZM1.78905 10.5146H0.326574C0.172754 10.5146 0.0496979 10.3886 0.0496979 10.2365C0.0496979 10.0844 0.17512 9.9584 0.326574 9.9584H1.78905C1.94287 9.9584 2.06592 10.0844 2.06592 10.2365C2.06592 10.3886 1.9405 10.5146 1.78905 10.5146Z" fill="#0062B2"/>
<path d="M27.3137 13.8372H13.5291C13.3492 13.8372 13.2025 13.6898 13.2025 13.5092C13.2025 13.3286 13.3492 13.1812 13.5291 13.1812H27.3137C27.4936 13.1812 27.6403 13.3286 27.6403 13.5092C27.6403 13.6898 27.4936 13.8372 27.3137 13.8372ZM13.5291 13.2787C13.4013 13.2787 13.2995 13.3832 13.2995 13.5092C13.2995 13.6352 13.4037 13.7397 13.5291 13.7397H27.3137C27.4415 13.7397 27.5433 13.6352 27.5433 13.5092C27.5433 13.3832 27.4391 13.2787 27.3137 13.2787H13.5291ZM1.78905 13.8372H0.326572C0.146721 13.8372 0 13.6898 0 13.5092C0 13.3286 0.146721 13.1812 0.326572 13.1812H1.78905C1.9689 13.1812 2.11562 13.3286 2.11562 13.5092C2.11562 13.6898 1.9689 13.8372 1.78905 13.8372ZM0.326572 13.2787C0.198783 13.2787 0.097025 13.3832 0.097025 13.5092C0.097025 13.6352 0.201149 13.7397 0.326572 13.7397H1.78905C1.91684 13.7397 2.01859 13.6352 2.01859 13.5092C2.01859 13.3832 1.91447 13.2787 1.78905 13.2787H0.326572ZM27.3137 10.5597H13.5291C13.3492 10.5597 13.2025 10.4124 13.2025 10.2317C13.2025 10.0511 13.3492 9.90374 13.5291 9.90374H27.3137C27.4936 9.90374 27.6403 10.0511 27.6403 10.2317C27.6403 10.4124 27.4936 10.5597 27.3137 10.5597ZM13.5291 10.0012C13.4013 10.0012 13.2995 10.1058 13.2995 10.2317C13.2995 10.3577 13.4037 10.4623 13.5291 10.4623H27.3137C27.4415 10.4623 27.5433 10.3577 27.5433 10.2317C27.5433 10.1058 27.4391 10.0012 27.3137 10.0012H13.5291ZM1.78905 10.5597H0.326572C0.146721 10.5597 0 10.4124 0 10.2317C0 10.0511 0.146721 9.90374 0.326572 9.90374H1.78905C1.9689 9.90374 2.11562 10.0511 2.11562 10.2317C2.11562 10.4124 1.9689 10.5597 1.78905 10.5597ZM0.326572 10.0012C0.198783 10.0012 0.097025 10.1058 0.097025 10.2317C0.097025 10.3577 0.201149 10.4623 0.326572 10.4623H1.78905C1.91684 10.4623 2.01859 10.3577 2.01859 10.2317C2.01859 10.1058 1.91447 10.0012 1.78905 10.0012H0.326572Z" fill="#0062B2"/>
</g>
<defs>
<clipPath id="clip0_1195_908">
<rect width="28" height="28" fill="white"/>
</clipPath>
</defs>
</svg>
