<svg width="10" height="19" viewBox="0 0 10 19" fill="none" xmlns="http://www.w3.org/2000/svg">
<g clip-path="url(#clip0_1020_30)">
<path fill-rule="evenodd" clip-rule="evenodd" d="M7.96834 3.20804C8.56201 3.19495 9.15567 3.20804 9.74934 3.20804H10V0.143949C9.68338 0.11776 9.35356 0.0653821 9.02375 0.0522877C8.41689 0.0260988 7.81003 -8.99974e-05 7.20317 0.0130044C6.27968 0.0260988 5.39578 0.261798 4.63061 0.79867C3.7467 1.4272 3.27177 2.31762 3.08707 3.35208C3.00792 3.7842 2.99472 4.22941 2.98153 4.66152C2.96834 5.34243 2.98153 6.03644 2.98153 6.71735V6.97924H0V10.3969H2.92876V18.9999H6.51715V10.41H9.44591C9.59103 9.27076 9.73615 8.14464 9.89446 6.97924C9.65699 6.97924 9.44591 6.97924 9.23483 6.97924C8.40369 6.97924 6.49077 6.97924 6.49077 6.97924C6.49077 6.97924 6.49077 5.29005 6.51715 4.54367C6.54354 3.5354 7.1504 3.23423 7.95515 3.19495L7.96834 3.20804Z" fill="white"/>
</g>
<defs>
<clipPath id="clip0_1020_30">
<rect width="10" height="19" fill="white"/>
</clipPath>
</defs>
</svg>
