<svg width="15" height="15" viewBox="0 0 15 15" fill="none" xmlns="http://www.w3.org/2000/svg">
<g clip-path="url(#clip0_1020_41)">
<path d="M0.248139 4.97512H3.36228V15H0.248139V4.97512ZM1.79901 0C2.79156 0 3.59801 0.808458 3.59801 1.80348C3.59801 2.79851 2.79156 3.60697 1.79901 3.60697C0.806452 3.60697 0 2.79851 0 1.80348C0 0.808458 0.806452 0 1.79901 0Z" fill="white"/>
<path d="M5.31018 4.97507H8.28785V6.34323H8.32507C8.7469 5.55965 9.75187 4.72632 11.2655 4.72632C14.4169 4.72632 14.9876 6.80343 14.9876 9.50244V14.9999H11.8859V10.1243C11.8859 8.95517 11.861 7.46264 10.273 7.46264C8.68487 7.46264 8.41192 8.73129 8.41192 10.0373V14.9999H5.31018V4.97507Z" fill="white"/>
</g>
<defs>
<clipPath id="clip0_1020_41">
<rect width="15" height="15" fill="white"/>
</clipPath>
</defs>
</svg>
